<?xml version="1.0" encoding="UTF-8"?>
<svg id="Layer_1" data-name="Layer 1" xmlns="http://www.w3.org/2000/svg" viewBox="0 0 819.64 819.65">
  <defs>
    <style>
      .cls-1 {
        fill: #5e3b7f;
      }

      .cls-1, .cls-2, .cls-3 {
        stroke-width: 0px;
      }

      .cls-2 {
        fill: #5e3c7f;
      }

      .cls-3 {
        fill: #fdfdfd;
      }
    </style>
  </defs>
  <path class="cls-1" d="M699.48,819.65H118.45c-1.22-2.48-3.72-1.57-5.64-2-60.22-13.66-97.19-50.53-110.82-110.79-.44-1.93.47-4.41-1.98-5.66V118.56c2.8-2.62,2.2-6.37,2.86-9.57C15.92,46.33,71.31.3,135.46.21,318.39-.05,501.31-.1,684.24.23c74.15.14,135.04,61,135.17,135.11.33,182.93.26,365.86.03,548.78-.08,61.48-42.35,115.14-101.76,130.98-6.05,1.61-12.5,1.58-18.19,4.54ZM529.48,399.57c1.5-2.88,3.83-3.11,5.65-4.01,35.88-17.86,57.83-45.91,61.14-86.41,4.63-56.56-16.39-100.07-74.1-120.59-23.21-8.25-47.26-10.43-71.61-10.46-69.08-.08-138.15-.07-207.23.03-6.59,0-15.02-2.87-19.3,1.25-4.32,4.17-1.36,12.65-1.37,19.21-.09,149.89-.06,299.78-.12,449.67,0,4.83-.39,8.28,6.72,8.25,74.14-.31,148.29.06,222.43-.39,30.83-.19,61.04-5.05,89.66-17.38,32.16-13.85,57.03-34.95,69.15-68.96,8.93-25.04,9.81-50.74,5.35-76.52-7.04-40.67-27.04-71.98-67.15-87.48-6.17-2.39-12.61-4.08-19.25-6.21Z"/>
  <path class="cls-3" d="M529.48,399.57c6.64,2.12,13.08,3.82,19.25,6.21,40.11,15.51,60.11,46.81,67.15,87.48,4.46,25.78,3.57,51.47-5.35,76.52-12.12,34.01-37,55.11-69.15,68.96-28.62,12.33-58.83,17.19-89.66,17.38-74.14.45-148.29.08-222.43.39-7.12.03-6.73-3.42-6.72-8.25.06-149.89.02-299.78.12-449.67,0-6.56-2.96-15.04,1.37-19.21,4.28-4.12,12.71-1.24,19.3-1.25,69.08-.1,138.15-.11,207.23-.03,24.35.03,48.41,2.2,71.61,10.46,57.71,20.53,78.72,64.04,74.1,120.59-3.31,40.5-25.26,68.56-61.14,86.41-1.82.91-4.15,1.13-5.65,4.01ZM388.81,587.84c0-.08,0-.15,0-.23,24.79,0,49.59.57,74.36-.13,39.83-1.12,65.97-24.29,70.68-63.3,3.27-27.12-1.5-52.34-24.91-70.29-14.31-10.97-31.16-14.99-48.78-15.1-49.05-.3-98.09-.03-147.14-.3-6.03-.03-6.84,2.25-6.82,7.44.17,44.78.2,89.57-.02,134.35-.03,5.81,1.28,7.8,7.48,7.71,25.05-.37,50.11-.15,75.17-.15ZM383.16,246.55v-.06c-23.46,0-46.92.03-70.38-.03-3.73-.01-6.6-.15-6.58,5.19.18,40.52.13,81.04.04,121.56,0,3.82,1.38,5.11,5.14,5.1,47.45-.23,94.92.51,142.33-.83,29.45-.83,52.29-21.35,57.88-48.67,3.04-14.83,2.14-29.69-1.9-44.31-4.28-15.5-14.13-25.89-29-31.74-10.54-4.14-21.49-6.14-32.77-6.18-21.59-.08-43.19-.02-64.78-.02Z"/>
  <path class="cls-2" d="M388.81,587.84c-25.06,0-50.12-.21-75.17.15-6.19.09-7.5-1.9-7.48-7.71.22-44.78.2-89.57.02-134.35-.02-5.19.79-7.47,6.82-7.44,49.05.27,98.09,0,147.14.3,17.62.11,34.48,4.12,48.78,15.1,23.41,17.95,28.19,43.17,24.91,70.29-4.71,39.01-30.84,62.18-70.68,63.3-24.77.7-49.57.13-74.36.13,0,.08,0,.15,0,.23Z"/>
  <path class="cls-2" d="M383.16,246.55c21.59,0,43.19-.06,64.78.02,11.28.04,22.23,2.04,32.77,6.18,14.88,5.84,24.72,16.24,29,31.74,4.04,14.62,4.93,29.48,1.9,44.31-5.59,27.32-28.43,47.84-57.88,48.67-47.41,1.34-94.89.6-142.33.83-3.76.02-5.15-1.28-5.14-5.1.09-40.52.13-81.04-.04-121.56-.02-5.34,2.84-5.2,6.58-5.19,23.46.07,46.92.03,70.38.03v.06Z"/>
</svg>