<?xml version="1.0" encoding="UTF-8"?>
<svg id="Layer_1" data-name="Layer 1" xmlns="http://www.w3.org/2000/svg" viewBox="0 0 978.41 1101.86">
  <defs>
    <style>
      .cls-1 {
        fill: #fdfdfe;
      }

      .cls-1, .cls-2, .cls-3, .cls-4, .cls-5 {
        stroke-width: 0px;
      }

      .cls-2 {
        fill: #659ad1;
      }

      .cls-3 {
        fill: #014482;
      }

      .cls-4 {
        fill: #fcfcfd;
      }

      .cls-5 {
        fill: #01599c;
      }
    </style>
  </defs>
  <path class="cls-3" d="M964.74,827.15c-6.82,13.91-17.35,24.37-30.61,32.04-133.59,77.21-267.25,154.32-400.79,231.63-8.64,5-18.54,6.31-27.15,11.05h-36.57c-143.69-75.76-281.69-161.5-423.15-241.17-14.95-8.42-27.36-19.36-34-35.73,2.94-1.2,6.07-2.09,8.8-3.65,26.63-15.31,53.22-30.68,79.76-46.14,34.87-20.3,69.68-40.69,104.52-61.04,1.13,1.35,2.4,2.61,3.36,4.08,77.25,118.6,186.28,173.22,326.92,154.96,103.21-13.4,181.55-68.91,235.18-158.5,1.34.43,2.81.64,4.01,1.33,44.71,25.82,89.52,51.48,134.03,77.64,18.67,10.97,38.35,20.31,55.69,33.5Z"/>
  <path class="cls-2" d="M205.55,714.14c-34.84,20.35-69.65,40.74-104.52,61.04-26.54,15.45-53.14,30.83-79.76,46.14-2.73,1.57-5.85,2.45-8.8,3.65C2.67,811.68,0,796.51,0,780.38c.1-113.63.05-227.26.05-340.89,0-39.43-.16-78.86.06-118.29.19-34.83,15.81-61.56,45.56-78.84C177.92,165.57,310.39,89.16,442.95,12.91c31.6-18.18,63.62-16.67,94.96,1.4,85.01,49.02,169.97,98.14,254.94,147.21,44.66,25.79,89.28,51.66,134,77.34,15.73,9.04,30.11,19.28,37.58,36.7-1,.94-1.87,2.11-3.03,2.78-49.76,28.83-99.39,57.89-149.42,86.24-13.19,7.47-25.08,17.69-40.46,21.02-2.39-.64-3.08-2.86-4.18-4.64-18.83-30.41-41.56-57.5-69.38-80.06-76.83-62.3-164.45-87.12-262.08-71.49-78.18,12.51-143.86,49.69-194.83,110.51-68.19,81.37-91.47,174.79-71.09,279.05,6.59,33.71,20.19,64.76,35.6,95.16Z"/>
  <path class="cls-5" d="M771.51,385.61c15.38-3.33,27.27-13.55,40.46-21.02,50.03-28.35,99.66-57.41,149.42-86.24,1.16-.67,2.03-1.84,3.03-2.78,11.49,14.53,13.96,31.63,13.96,49.39.01,109.62,0,219.25,0,328.87,0,41.56-.04,83.11.02,124.67.03,17.53-3.43,34.03-13.68,48.64-17.34-13.19-37.02-22.53-55.69-33.5-44.51-26.16-89.32-51.82-134.03-77.64-1.19-.69-2.66-.9-4.01-1.33-37.29-21.75-74.51-43.6-111.9-65.17-9.8-5.65-18.92-12.63-29.94-16.02-26.87-18.79-56.42-33.07-84.31-50.14-17.87-10.95-37.08-19.67-53.87-32.41,22.41-13.24,44.91-26.33,67.19-39.78,23.46-14.17,48.3-26.03,70.68-42.01,1.67-.46,3.53-.6,4.99-1.44,44.33-25.56,88.61-51.18,132.9-76.79,2.17-1.25,4.53-2.31,4.76-5.3ZM761.07,497q-18.32,0-18.32,17.38,0,18.82-19.17,18.82-17.23,0-17.23,17.57,0,18.4,18.55,18.4,17.85,0,17.85,18,0,18.21,18.56,18.21,17.82,0,17.82-18.06t17.77-18.15q18.51,0,18.51-18.64,0-17.32-17.69-17.32-18.6,0-18.6-18.4,0-17.81-18.06-17.81ZM897.6,497q-19.1,0-19.1,17.82,0,18.38-18.61,18.38-17.71,0-17.71,17.29,0,18.68,18.47,18.68,17.85,0,17.85,18.07,0,18.14,17.71,18.14,18.68,0,18.68-18.09,0-18.11,17.74-18.11,18.65,0,18.65-18.36,0-17.61-17.26-17.61-19.12,0-19.12-18.87,0-17.34-17.29-17.34Z"/>
  <path class="cls-1" d="M771.51,385.61c-.22,2.99-2.59,4.05-4.76,5.3-44.29,25.61-88.58,51.24-132.9,76.79-1.46.84-3.32.97-4.99,1.44-.65-1.63-1.07-3.39-1.98-4.87-36.43-59.36-111.93-89.2-179.18-70.87-68.91,18.79-117.4,77.24-121.64,148.46-1.88,31.57,3.98,61.94,21.9,88.99.4,3.73,2.56,6.64,4.62,9.55,40.06,56.63,94.64,81.9,163.25,71.27,49.47-7.66,87.91-34.22,113.33-78.19,11.02,3.39,20.15,10.37,29.94,16.02,37.39,21.56,74.62,43.42,111.9,65.17-53.63,89.59-131.98,145.1-235.18,158.5-140.64,18.26-249.67-36.36-326.92-154.96-.96-1.47-2.23-2.72-3.36-4.08-15.4-30.39-29.01-61.45-35.6-95.16-20.38-104.26,2.9-197.68,71.09-279.05,50.97-60.82,116.65-98,194.83-110.51,97.64-15.62,185.26,9.2,262.08,71.49,27.82,22.56,50.55,49.65,69.38,80.06,1.1,1.78,1.79,3.99,4.18,4.64Z"/>
  <path class="cls-2" d="M347.97,630.87c-17.91-27.05-23.78-57.43-21.9-88.99,4.24-71.22,52.73-129.68,121.64-148.46,67.25-18.33,142.75,11.51,179.18,70.87.9,1.47,1.33,3.24,1.98,4.87-22.38,15.98-47.22,27.84-70.68,42.01-22.28,13.45-44.78,26.53-67.19,39.78-30.47,17.3-60.83,34.8-91.45,51.83-17.11,9.52-33.08,21.13-51.58,28.1Z"/>
  <path class="cls-3" d="M347.97,630.87c18.49-6.97,34.47-18.59,51.58-28.1,30.62-17.03,60.98-34.53,91.45-51.83,16.78,12.74,35.99,21.46,53.86,32.41,27.88,17.08,57.44,31.35,84.31,50.14-25.42,43.97-63.86,70.53-113.33,78.19-68.6,10.63-123.18-14.64-163.25-71.27-2.06-2.91-4.22-5.81-4.62-9.55Z"/>
  <path class="cls-4" d="M761.07,497q18.06,0,18.06,17.81,0,18.4,18.6,18.4,17.69,0,17.69,17.32,0,18.64-18.51,18.64-17.77,0-17.77,18.15t-17.82,18.06q-18.56,0-18.56-18.21,0-18-17.85-18-18.55,0-18.55-18.4,0-17.57,17.23-17.57,19.17,0,19.17-18.82,0-17.38,18.32-17.38Z"/>
  <path class="cls-4" d="M897.6,497q17.29,0,17.29,17.34,0,18.87,19.12,18.87,17.26,0,17.26,17.61,0,18.36-18.65,18.36-17.74,0-17.74,18.11t-18.68,18.09q-17.71,0-17.71-18.14,0-18.07-17.85-18.07-18.47,0-18.47-18.68,0-17.29,17.71-17.29,18.61,0,18.61-18.38,0-17.82,19.1-17.82Z"/>
</svg>