<?xml version="1.0" encoding="UTF-8"?>
<svg id="Layer_1" data-name="Layer 1" xmlns="http://www.w3.org/2000/svg" xmlns:xlink="http://www.w3.org/1999/xlink" viewBox="0 0 1365.21 1358.25">
  <defs>
    <style>
      .cls-1 {
        fill: url(#linear-gradient);
      }

      .cls-1, .cls-2, .cls-3, .cls-4 {
        stroke-width: 0px;
      }

      .cls-3 {
        fill: #fff;
      }

      .cls-4 {
        fill: url(#linear-gradient-2);
      }
    </style>
    <linearGradient id="linear-gradient" x1="535.77" y1="-67.06" x2="790.18" y2="1267.41" gradientUnits="userSpaceOnUse">
      <stop offset=".24" stop-color="#54c194"/>
      <stop offset=".44" stop-color="#388062"/>
      <stop offset=".68" stop-color="#1a3b2d"/>
      <stop offset=".85" stop-color="#07100c"/>
      <stop offset=".93" stop-color="#000"/>
    </linearGradient>
    <linearGradient id="linear-gradient-2" x1="753.49" y1="265.68" x2="990.35" y2="821.33" gradientUnits="userSpaceOnUse">
      <stop offset=".13" stop-color="#57d29f"/>
      <stop offset=".32" stop-color="#58d2a0"/>
      <stop offset=".38" stop-color="#5fd3a3"/>
      <stop offset=".43" stop-color="#6bd5a9"/>
      <stop offset=".47" stop-color="#7cd8b2"/>
      <stop offset=".5" stop-color="#8ddcbc"/>
      <stop offset=".72" stop-color="#8edcbd"/>
      <stop offset=".8" stop-color="#95dec1"/>
      <stop offset=".85" stop-color="#a1e2c8"/>
      <stop offset=".9" stop-color="#b2e7d1"/>
      <stop offset=".94" stop-color="#c8eede"/>
      <stop offset=".97" stop-color="#e2f6ee"/>
      <stop offset="1" stop-color="#fff"/>
    </linearGradient>
  </defs>
  <path class="cls-1" d="M1356.13,679.97c0,23.22-.57,45.48-2.84,68.1-1.58,15.69-3.25,31.34-5.88,46.69-54.78,320.12-332.53,563.49-668.28,563.49C304.05,1358.25,0,1054.2,0,679.13S304.05,0,679.12,0s677,304.9,677,679.97Z"/>
  <circle class="cls-3" cx="690.06" cy="686.13" r="603.73"/>
  <g>
    <path class="cls-2" d="M618.22,620.16c4.34-1.61-31.88-52.2-34.59-54.95-54.28-55.15-145.7-43.49-194.43,12.64-41.85,48.21-44.76,119.02-10.79,172.52,52.27,82.32,206.5,87.41,239.81-16.7,0,0,90.28,26.01,90.38,26.04,1.16.34-19.12,38.54-20.43,40.6-19.25,30.35-45.24,56.58-76.56,74.42-80.6,45.91-186.37,40.67-262.96-11.21-76.22-51.63-111.73-157.51-91.99-245.75,5.68-25.37,15.78-49.68,29.8-71.58,98.55-153.95,354.61-142.4,419.88,34.05.78,2.11,1.53,4.23,2.26,6.36,0,0-90.25,33.5-90.38,33.55Z"/>
    <path class="cls-2" d="M702.55,444.73h115.69l130.21,332.43,136.34-332.43h99.57l-350.81,850.55s-38.2,62.47-117.91,60.94v-63.15s30.59-21.11,48.97-70.13l131.74-322.45-193.81-455.76Z"/>
  </g>
  <path class="cls-4" d="M859.75,1244.29c-4.53,4.4-8.62,9.27-12.14,14.69-10.35,15.92-14.58,35-23.09,52.01-15,29.98-65.26,40.65-96.7,45.54,39.56.88,119.54,2.06,157.16-10.77,26.42-9.01,39.59-15.15,59.29-22.6,17.25-6.53,33.32-14.73,49.33-23.03,108.72-56.37,200.84-139.36,271.9-252.66,114.28-182.24,133.22-422.55,41.77-633.69-48.12-111.1-123.67-206.12-218.96-277.82-39.8-29.95-83.16-55.68-129.41-76.34-35.07-15.67-71.72-26.6-108.34-37.79-.78-.24-1.61-.48-2.41-.28-2.69.69-2.3,8.55-2.65,10.69-1.13,6.84-2.26,13.68-3.4,20.52-8.35,50.49,2.3,43.63,46.33,61.98,36.28,15.12,71.13,33.66,104.02,55.18,65.77,43.05,123.71,98.15,169.49,162.08,142.18,198.52,149.76,461.19,33.18,674.69-57.88,106.01-150.25,158.51-260.8,198.34-26.55,9.57-54.79,20.02-74.57,39.26Z"/>
</svg>