<?xml version="1.0" encoding="UTF-8"?>
<svg id="Layer_1" data-name="Layer 1" xmlns="http://www.w3.org/2000/svg" viewBox="0 0 126.46 126.5">
  <defs>
    <style>
      .cls-1 {
        fill: #0b2e20;
      }

      .cls-1, .cls-2 {
        stroke-width: 0px;
      }

      .cls-2 {
        fill: #fafcfb;
      }
    </style>
  </defs>
  <path class="cls-1" d="M126.46,63.28c0,35.09-28.05,63.04-63.13,63.23C27.45,126.69-.08,96.88,0,63.18.09,28.64,28.44.02,63.31,0c34.42-.02,63.52,28.46,63.15,63.28ZM68.43,56.93c0-9.87-.05-19.74.04-29.61.02-1.78-.46-2.26-2.21-2.17-3.13.15-6.27.13-9.4,0-1.6-.06-2.14.32-2.11,2.03.12,5.64.01,11.28.08,16.92.02,1.4-.15,1.74-1.78,1.52-7.31-1-14.26-.01-20.1,4.93-6.07,5.14-7.74,12.03-7.37,19.66.5,10.12,6.38,16.99,16.31,18.96,8.46,1.67,16.83.65,25.2-.69,1.53-.24,1.32-1.19,1.32-2.17,0-9.79,0-19.59,0-29.38ZM63.14,102.4c3.89,1.85,7.43,3.47,10.89,5.23,1.27.65,2.24.51,3.47-.13,8.14-4.24,11.64-11.28,12.17-20.07.8-13.16.18-26.34.4-39.5.02-1.32-.37-1.75-1.72-1.72-3.21.09-6.43.14-9.64,0-1.83-.09-2.33.42-2.34,2.29-.07,11.76.33,23.52-.29,35.27-.42,8.02-3.58,14.16-11.11,17.63-.49.22-.94.51-1.83,1.01ZM90.05,32.83c0-.53,0-.69,0-.84-.03-2.11.74-4.9-.31-6.15-1.23-1.47-4.12-.43-6.28-.46-2.25-.03-5.22-.99-6.57.35-1.46,1.45-.37,4.44-.44,6.76-.06,2.18-.77,5.07.32,6.36,1.27,1.51,4.25.41,6.48.48,2.17.07,5.1.75,6.34-.35,1.44-1.29.26-4.27.46-6.14Z"/>
  <path class="cls-2" d="M68.43,56.93c0,9.79,0,19.59,0,29.38,0,.98.22,1.93-1.32,2.17-8.38,1.33-16.75,2.36-25.2.69-9.94-1.97-15.82-8.84-16.31-18.96-.37-7.64,1.3-14.52,7.37-19.66,5.83-4.94,12.79-5.93,20.1-4.93,1.62.22,1.79-.12,1.78-1.52-.06-5.64.04-11.28-.08-16.92-.04-1.71.5-2.09,2.11-2.03,3.13.13,6.27.15,9.4,0,1.75-.09,2.23.39,2.21,2.17-.09,9.87-.04,19.74-.04,29.61ZM54.81,67.75c0-3.05-.08-6.1.04-9.15.06-1.42-.48-1.86-1.78-2.13-8.54-1.78-14.78,4.28-13.57,13.25.77,5.73,3.44,8.39,9.16,9.25,1.58.24,3.11-.06,4.67-.12,1.25-.05,1.53-.57,1.51-1.72-.07-3.13-.02-6.26-.02-9.38Z"/>
  <path class="cls-2" d="M63.14,102.4c.89-.49,1.35-.78,1.83-1.01,7.53-3.47,10.69-9.61,11.11-17.63.62-11.76.22-23.51.29-35.27.01-1.87.52-2.38,2.34-2.29,3.21.15,6.43.1,9.64,0,1.34-.04,1.74.39,1.72,1.72-.21,13.17.4,26.34-.4,39.5-.53,8.79-4.04,15.83-12.17,20.07-1.23.64-2.2.77-3.47.13-3.46-1.76-7-3.37-10.89-5.23Z"/>
  <path class="cls-2" d="M90.05,32.83c-.2,1.87.98,4.85-.46,6.14-1.24,1.11-4.17.42-6.34.35-2.23-.07-5.21,1.02-6.48-.48-1.09-1.3-.38-4.18-.32-6.36.07-2.32-1.02-5.31.44-6.76,1.35-1.34,4.32-.38,6.57-.35,2.16.03,5.05-1.01,6.28.46,1.05,1.26.28,4.04.31,6.15,0,.16,0,.31,0,.84Z"/>
  <path class="cls-1" d="M54.81,67.75c0,3.13-.04,6.26.02,9.38.02,1.15-.26,1.67-1.51,1.72-1.56.06-3.09.36-4.67.12-5.71-.86-8.39-3.53-9.16-9.25-1.21-8.98,5.03-15.03,13.57-13.25,1.3.27,1.84.71,1.78,2.13-.12,3.05-.04,6.1-.04,9.15Z"/>
</svg>