<?xml version="1.0" encoding="UTF-8"?>
<svg id="Layer_1" data-name="Layer 1" xmlns="http://www.w3.org/2000/svg" viewBox="0 0 1089.93 781.49">
  <defs>
    <style>
      .cls-1 {
        fill: #2496eb;
      }

      .cls-1, .cls-2, .cls-3, .cls-4, .cls-5, .cls-6, .cls-7, .cls-8, .cls-9 {
        stroke-width: 0px;
      }

      .cls-2 {
        fill: #2695e8;
      }

      .cls-3 {
        fill: #2595ea;
      }

      .cls-4 {
        fill: #2495eb;
      }

      .cls-5 {
        fill: #3e89b7;
      }

      .cls-6 {
        fill: #3e8bb9;
      }

      .cls-7 {
        fill: #2496ea;
      }

      .cls-8 {
        fill: #2395e8;
      }

      .cls-9 {
        fill: #3d87b3;
      }
    </style>
  </defs>
  <path class="cls-4" d="M814.97,358.33c18.86-5.59,18.62-5.48,10.26-23.75-23.07-50.4-16.3-99.65,6.33-148.13,4.82-10.32,11.08-19.81,17.44-29.27,3.58-5.33,6.25-6.85,12.45-3.22,41.8,24.48,70.22,59.25,83.17,106.2,4.3,15.58,4.17,15.31,21.44,13.26,32-3.79,63.42-1.78,93.99,9.56,33.33,12.37,37.71,24.2,18.42,54.05-32.48,50.27-80.72,71.6-138.7,72.83-12.12.26-16.84,4.31-21.02,14.7-22.12,55.02-49.45,107.21-85.21,154.83-54.16,72.11-123.27,124.54-206.75,158.08-65.99,26.51-134.76,39.61-205.76,43.05-67.88,3.29-134.77-1.57-200.55-19.02-50.49-13.39-95.4-36.43-129.91-76.9-29.96-35.13-49.7-75.71-63.72-119.39-12.82-39.93-18.88-81.08-22.87-122.63-5.41-15.53-4.41-31.55-2.28-47.28,2-14.79,15.78-26.22,31.71-28.59,5.65-.84,11.36-.64,17.06-.64,228.17-.01,456.33-.11,684.5.16,20.63.02,40.97-1.01,60.99-5.93,6.31-1.55,12.86.31,19.01-1.99Z"/>
  <path class="cls-4" d="M285.63,246.62c14.42,0,28.85.37,43.25-.12,9.52-.32,12.63,3.7,12.5,12.83-.36,25.42-.4,50.84,0,76.26.16,10.07-4.59,13.57-13.74,13.55-29.21-.06-58.43-.15-87.64-.01-8.25.04-11.92-4.21-11.97-11.81-.16-26.56-.08-53.11-.12-79.67-.01-8.21,4.15-11.29,12.19-11.12,15.17.33,30.35.09,45.53.1Z"/>
  <path class="cls-1" d="M152.4,246.61c14.4,0,28.81.27,43.21-.1,8.98-.23,13.41,3.07,13.33,12.47-.21,25.77-.23,51.55-.05,77.32.06,8.66-4.05,12.69-12.3,12.7-29.94.03-59.88-.04-89.82-.15-7.99-.03-11.37-4.18-11.31-12.23.21-26.15.17-52.31.01-78.46-.05-8.03,3.06-11.79,11.45-11.61,15.15.33,30.32.09,45.48.09v-.04Z"/>
  <path class="cls-3" d="M420.38,246.63c14.78,0,29.56.25,44.32-.1,7.92-.19,11.01,3.48,11,10.86-.02,26.52-.04,53.04,0,79.56.01,8.52-3.96,12.2-12.6,12.13-29.17-.22-58.34-.15-87.51,0-9.04.05-13.18-3.9-13.04-13.03.39-26.13.72-52.26.68-78.39-.01-8.45,3.63-11.33,11.69-11.16,15.15.32,30.31.09,45.46.09v.05Z"/>
  <path class="cls-1" d="M285.49,123.42c15.17,0,30.34.16,45.51-.07,7.2-.11,10.37,2.87,10.33,10.11-.15,27.31-.15,54.61-.07,81.92.02,6.75-3.06,9.22-9.7,9.47-31.09,1.15-62.16.82-93.25.05-7.35-.18-10.44-4.02-10.46-10.57-.11-26.55-.02-53.09.09-79.64.03-7.84,3.79-11.59,12.04-11.4,15.16.35,30.34.1,45.51.1v.03Z"/>
  <path class="cls-4" d="M417.93,225.62c-14.42,0-28.83-.15-43.25.06-8.74.12-12.03-3.73-11.94-12.47.27-26.16.05-52.33-.17-78.49-.06-7.33,2.39-11.41,10.44-11.37,30.73.15,61.46.12,92.19,0,7.97-.03,10.63,4.16,10.6,11.43-.08,26.18-.23,52.36.05,78.53.09,8.95-4.08,12.3-12.4,12.26-15.17-.08-30.35-.02-45.52-.02v.07Z"/>
  <path class="cls-4" d="M551.84,246.63c15.18-.02,30.37.13,45.55-.08,7.62-.11,11.18,3.11,11.15,10.81-.12,26.95-.11,53.9-.1,80.85,0,7.04-3.57,10.66-10.42,10.67-30.74.07-61.49.1-92.23-.08-6.23-.04-9.74-3.55-9.73-10.11.03-27.71.08-55.42,0-83.13-.02-7.19,4.08-8.98,10.25-8.94,15.18.08,30.37.03,45.55.01Z"/>
  <path class="cls-2" d="M632.87,249.52c2.45-4.28,6.67-2.82,10.18-2.83,28.72-.14,57.44.17,86.15-.23,9.5-.13,13.81,2.67,13.52,12.86-.82,29.07.92,58.17-.99,87.23-4.61,1.73-9.29,2.65-14.29,2.63-27.5-.14-54.99-.01-82.49-.12-4.33-.02-9.22,1.08-12.2-3.72-1.49-31.94-1.73-63.88.12-95.82Z"/>
  <path class="cls-8" d="M606.02,98.73c-3.03,4.65-7.9,3.71-12.23,3.73-27.49.1-54.98.05-82.46-.01-5.29-.01-10.58-.3-15.03-3.79,0,0-.01-.04-.01-.05-.08-28.77.02-57.53-.34-86.3-.11-8.52,2.62-12.44,11.73-12.31,29.51.43,59.03.33,88.55.43,8.01,2.17,10.97,6.92,10.66,15.61-.98,27.54.63,55.13-.87,82.69Z"/>
  <path class="cls-7" d="M502.31,224.14c-7.08.03-6.28-5.32-6.29-9.67-.09-26.84.11-53.69-.08-80.53-.06-7.87,3.39-10.71,10.98-10.63,29.86.31,59.72.34,89.58.47,8.14,2.07,10.7,6.89,10.44,15.54-.73,24.17-.34,48.37-.2,72.56.04,7.45-2.3,13.13-10.46,13.06-31.32-.28-62.66,1.32-93.96-.8Z"/>
  <path class="cls-6" d="M502.31,224.14c29.21-.07,58.42-.12,87.62-.24,12.76-.05,15.49-2.61,15.6-15.21.16-19.35-.22-38.7.19-58.04.22-10.29,1.12-20.39-9.22-26.87,8.19-1.34,11.97,1.92,11.93,10.43-.13,26.85.04,53.7.06,80.56,0,6.69-2.85,10.92-10.06,10.91-31.01-.05-62.02-.15-93.03-.3-1.03,0-2.06-.81-3.09-1.24Z"/>
  <path class="cls-5" d="M606.02,98.73c-.15-24.43-.52-48.87-.33-73.3.08-9.78,1.28-19.52-9.46-25,7.27-1.61,12.01,1.58,12.1,8.68.34,28.23.12,56.47-.06,84.71-.01,1.64-1.47,3.27-2.25,4.91Z"/>
  <path class="cls-9" d="M632.87,249.52c-.04,31.94-.08,63.88-.12,95.82-3.03-2.54-2.68-6.12-2.68-9.45-.04-26.09,0-52.17.06-78.26,0-2.97-.42-6.17,2.74-8.11Z"/>
</svg>