<?xml version="1.0" encoding="UTF-8"?>
<svg id="Layer_1" data-name="Layer 1" xmlns="http://www.w3.org/2000/svg" viewBox="0 0 137.54 137.51">
  <defs>
    <style>
      .cls-1 {
        fill: #1b1b1b;
      }

      .cls-1, .cls-2, .cls-3 {
        stroke-width: 0px;
      }

      .cls-2 {
        fill: #f5f5f5;
      }

      .cls-3 {
        fill: #f0f0f0;
      }
    </style>
  </defs>
  <path class="cls-1" d="M90,137.47c-19.99,0-39.98-.07-59.97.03-9.47.04-17.54-2.86-23.71-10.29C2.1,122.12.14,116.16.08,109.66c-.13-14.26-.04-28.52-.04-42.78,0-12.49.15-24.98-.03-37.47C-.25,12.42,12.39-.14,29.41.01c22.49.2,44.98.05,67.46.05,4.16,0,8.33-.16,12.49.04,7.57.35,14.3,2.64,19.91,8.18,5.64,5.57,8.02,12.29,8.17,19.9.19,9.78.05,19.56.05,29.34,0,17.17.08,34.34-.04,51.51-.05,7.75-2.59,14.54-8.21,20.21-5.55,5.6-12.24,8.01-19.88,8.19-6.45.15-12.91.03-19.36.03ZM94.39,70.73c-2.87,2.01-2.45,3.73-.67,6.06,6.04,7.95,11.83,16.08,17.68,24.16.46.63,1.46,1.2,1.05,2.1-.48,1.05-1.63.56-2.48.56-29.36.03-58.71,0-88.07.06-1.86,0-2.46-.39-2.46-2.37.08-21.65.08-43.29,0-64.94,0-2.13.68-2.53,2.62-2.52,12.49.08,24.98.08,37.47,0,1.8-.01,2.8.67,3.82,2.05,6.37,8.61,12.87,17.12,19.21,25.75,1.46,1.99,2.13,1.71,3.43-.12,1.1-1.54.04-2.29-.62-3.19-6.47-8.8-13.01-17.54-19.44-26.36-1.21-1.66-2.47-2.4-4.62-2.38-14.26.11-28.52.15-42.78-.02-2.91-.03-3.36.92-3.35,3.53.1,23.73.1,47.45,0,71.18-.01,2.76.57,3.66,3.54,3.65,33.31-.12,66.62-.07,99.93-.09.99,0,2.04.33,3.35-.51-9.23-12.23-18.4-24.39-27.62-36.62ZM54.16,70.1c2.5,0,4.99,0,7.49,0q6.9,0,5.83-6.84c-1.39-8.88-7.17-15.21-14.87-16.28-8.79-1.23-16.12,2.67-19.47,10.64-3.16,7.53-3.13,15.21.02,22.73,3.14,7.49,9.52,10.84,18.8,10.26,7.59-.48,13.07-5,15.22-12.57.21-.73.91-1.55-.21-2.15-1.59-.85-4.24.22-4.97,2.01-2.58,6.25-6.39,8.73-12.99,8.48-5.59-.21-10.31-3.93-11.98-9.7-1.26-4.34-1.57-8.79-.63-13.26,1.66-7.87,6.86-12.45,13.83-12.25,6.06.18,11.15,5.07,12.31,11.67.39,2.2.1,3.15-2.51,3.05-5.82-.21-11.65.01-17.47-.11-1.93-.04-2.14.78-2.21,2.39-.09,1.9.87,1.96,2.29,1.94,3.85-.05,7.7-.02,11.54-.02ZM105.5,48.31c-3.11-.92-5.08.16-6.98,2.78-8.85,12.17-17.93,24.18-26.93,36.24-.45.6-.86,1.22-1.29,1.84,3.45,1.08,5.36-.25,7.24-2.83,8.69-11.91,17.6-23.65,26.41-35.47.59-.79,1.48-1.44,1.55-2.57Z"/>
  <g>
    <path class="cls-3" d="M94.41,70.74c9.22,12.22,18.39,24.38,27.62,36.62-1.3.83-2.36.51-3.35.51-33.31.02-66.62-.03-99.93.09-2.97.01-3.55-.89-3.54-3.65.1-23.73.1-47.45,0-71.18-.01-2.61.44-3.57,3.35-3.53,14.26.17,28.52.13,42.78.02,2.14-.02,3.41.73,4.62,2.38,6.43,8.82,12.97,17.56,19.44,26.36.66.9,1.72,1.64.62,3.19-1.3,1.83-1.98,2.1-3.43.12-6.34-8.63-12.84-17.14-19.21-25.75-1.02-1.38-2.02-2.06-3.82-2.05-12.49.08-24.98.08-37.47,0-1.95-.01-2.63.39-2.62,2.52.09,21.65.08,43.29,0,64.94,0,1.99.6,2.38,2.46,2.37,29.35-.06,58.71-.04,88.07-.06.84,0,2,.49,2.48-.56.41-.89-.59-1.47-1.05-2.1-5.85-8.08-11.64-16.22-17.68-24.16-1.78-2.34-2.2-4.05.67-6.06Z"/>
    <path class="cls-2" d="M54.18,70.11c-3.85,0-7.7-.04-11.54.02-1.41.02-2.37-.04-2.29-1.94.07-1.62.28-2.43,2.21-2.39,5.82.12,11.65-.1,17.47.11,2.61.09,2.9-.85,2.51-3.05-1.16-6.6-6.25-11.49-12.31-11.67-6.97-.2-12.17,4.38-13.83,12.25-.94,4.47-.63,8.92.63,13.26,1.67,5.76,6.39,9.48,11.98,9.7,6.6.25,10.41-2.23,12.99-8.48.74-1.79,3.38-2.86,4.97-2.01,1.12.6.41,1.42.21,2.15-2.15,7.57-7.63,12.09-15.22,12.57-9.27.59-15.66-2.76-18.8-10.26-3.14-7.52-3.18-15.2-.02-22.73,3.35-7.97,10.68-11.87,19.47-10.64,7.7,1.08,13.48,7.41,14.87,16.28q1.07,6.84-5.83,6.84c-2.5,0-4.99,0-7.49,0Z"/>
    <path class="cls-2" d="M105.53,48.32c-.06,1.12-.95,1.77-1.55,2.57-8.81,11.82-17.73,23.56-26.41,35.47-1.89,2.58-3.79,3.92-7.24,2.83.43-.62.85-1.24,1.29-1.84,9-12.07,18.08-24.07,26.93-36.24,1.91-2.62,3.88-3.7,6.98-2.78Z"/>
  </g>
</svg>