<?xml version="1.0" encoding="UTF-8"?>
<svg id="Layer_1" data-name="Layer 1" xmlns="http://www.w3.org/2000/svg" viewBox="0 0 146.08 145.56">
  <defs>
    <style>
      .cls-1 {
        fill: #fbfdfd;
      }

      .cls-1, .cls-2 {
        stroke-width: 0px;
      }

      .cls-2 {
        fill: #019285;
      }
    </style>
  </defs>
  <path class="cls-2" d="M122.48,126.42c-6.15,5.48-12.92,9.99-20.52,13.21-11.41,4.84-23.28,6.75-35.63,5.61-11.77-1.09-22.66-4.75-32.58-11.16-14.81-9.56-24.96-22.76-30.31-39.56-3.9-12.23-4.51-24.71-1.66-37.2C6.6,36.19,18.54,20.15,37.36,9.4,50.52,1.87,64.82-1.15,79.87.39c23.67,2.42,42.08,13.79,55.05,33.73,6.54,10.06,10.15,21.21,10.96,33.2,1.36,20.05-4.54,37.72-17.55,53.02-.05.05-.28.44-.37.56,0,0-1.04.99-1.04,1.12,0,0-2.97,2.94-4.45,4.39ZM113.65,33.27c-.04-.08-.07-.17-.11-.25-.17,0-.35,0-.52,0-14.73,0-29.46,0-44.19-.02-.73,0-.91.4-1.15.92-3.57,7.92-7.16,15.84-10.73,23.76-7.87,17.45-15.74,34.9-23.59,52.36-.22.48-.92,1.1-.37,1.51.49.37,1.09-.3,1.57-.64,7.21-5.05,14.4-10.12,21.61-15.18,13.96-9.8,27.91-19.61,41.87-29.41.34-.24.66-.49.99-.73-.03-.09-.07-.17-.1-.26h-30.98c15.39-10.8,30.54-21.44,45.69-32.07Z"/>
  <path class="cls-1" d="M113.65,33.27c-15.15,10.63-30.3,21.26-45.69,32.07h30.98c.03.09.07.17.1.26-.33.24-.65.5-.99.73-13.96,9.8-27.91,19.61-41.87,29.41-7.2,5.06-14.4,10.13-21.61,15.18-.48.34-1.08,1.01-1.57.64-.55-.41.16-1.03.37-1.51,7.85-17.46,15.72-34.91,23.59-52.36,3.57-7.92,7.16-15.84,10.73-23.76.24-.52.41-.92,1.15-.92,14.73.03,29.46.02,44.19.02.17,0,.35,0,.52,0,.04.08.07.17.11.25Z"/>
</svg>