<?xml version="1.0" encoding="UTF-8"?>
<svg id="Layer_1" data-name="Layer 1" xmlns="http://www.w3.org/2000/svg" viewBox="0 0 1071.61 1336.26">
  <defs>
    <style>
      .cls-1 {
        fill: #0e47a1;
      }

      .cls-1, .cls-2 {
        stroke-width: 0px;
      }

      .cls-2 {
        fill: #6ab6f7;
      }
    </style>
  </defs>
  <path class="cls-2" d="M866.85.39c64.19,0,128.38-.03,192.56.08,3.49,0,8.35-1.93,10.23,2.02,2,4.2-2.81,6.41-5.26,8.87-36.22,36.34-72.56,72.55-108.84,108.81-60.42,60.39-120.74,120.89-181.27,181.17-58.85,58.6-118.45,116.47-176.75,175.62-48.79,49.5-98.43,98.12-147.47,147.36-55.67,55.9-111.49,111.65-167.19,167.51-23.35,23.42-47.95,45.69-69.86,70.54-6.69,7.59-12.42,8.51-19.72,1.1-35.72-36.27-71.47-72.49-107.43-108.52-26.03-26.08-52.05-52.2-78.81-77.52-8.04-7.61-10.17-11.79-1.24-20.69C221.61,441.55,437.15,226.12,652.51,10.51c7.67-7.67,15.44-10.44,25.99-10.38,62.78.37,125.56.18,188.35.18v.07Z"/>
  <path class="cls-2" d="M510.38,1178.53c-61.02-60.75-122.09-121.44-183.02-182.27-22.4-22.36-22.39-22.65.07-45.12,109.44-109.52,219-218.92,328.34-328.54,6.09-6.11,12.26-8.71,20.94-8.69,127.86.2,255.71.08,383.57.07,3.16,0,6.33.48,11.13.87-6.08,12.05-15.67,19.53-23.85,27.73-69.23,69.42-138.9,138.41-208.36,207.6-39.69,39.54-79.27,79.19-118.81,118.88-1.53,1.53-2.15,3.95-3.2,5.97-6.29.6-9.41,5.73-13.3,9.58-25.46,25.18-50.89,50.4-76.17,75.77-39.18,39.32-78.23,78.77-117.34,118.17Z"/>
  <path class="cls-1" d="M510.38,1178.53c39.11-39.4,78.16-78.85,117.34-118.17,25.28-25.37,50.71-50.58,76.17-75.77,3.89-3.85,7.01-8.98,13.3-9.58,38.06,38.07,76.11,76.15,114.19,114.2,76.66,76.59,153.39,153.11,229.9,229.84,4.04,4.05,12.46,8.46,9.84,13.76-3.35,6.78-11.12,1.7-17.17.38-4.03-.88-8.4-.24-12.61-.24-121.34,0-242.68-.11-364.03.22-9.76.03-16.21-3.25-23.19-9.79-30.33-28.43-59.4-58.23-89.18-87.17-18.76-18.23-37.86-37.07-54.57-57.69Z"/>
</svg>