<?xml version="1.0" encoding="UTF-8"?>
<svg id="Layer_1" data-name="Layer 1" xmlns="http://www.w3.org/2000/svg" viewBox="0 0 1301.07 1300.8">
  <defs>
    <style>
      .cls-1 {
        fill: #ef5034;
        stroke-width: 0px;
      }
    </style>
  </defs>
  <path class="cls-1" d="M752.16,924.16c-.05-33.31-16.25-60.58-45.88-80.03-6.6-4.33-9.29-8.7-9.28-16.69.25-109.77.14-219.54.2-329.31,0-3.31-1.68-8.18,1.47-9.63,4.21-1.94,6.22,3.29,8.74,5.79,39.02,38.66,77.84,77.52,116.96,116.08,6.25,6.16,7.05,11.77,4.67,20.25-13.98,49.83,10.48,100.46,60.27,119.33,50.87,19.28,106.19-6.11,126.1-55,15.27-37.5,8.89-71.95-16.59-102-25.77-30.4-59.62-40.58-98.66-31.7-5.91,1.34-10.3,1.67-15.03-3.11-43.33-43.73-86.8-87.32-130.46-130.71-5.26-5.23-6.43-9.64-4.86-17.25,13.74-66.62-32.48-120.34-95.43-122.74-8.54-.32-17.35,1.58-25.73,3.66-5.97,1.48-9.6.03-13.75-4.13-45.6-45.85-91.3-91.59-137.21-137.13-4.91-4.87-5.04-8.1-.26-12.84,39.25-38.98,77.91-78.58,117.69-117,27.41-26.47,79.38-26.58,107.48-.62,40.33,37.25,78.13,77.1,116.91,115.95,53.02,53.11,106.31,105.97,159.38,159.04,84.52,84.52,168.94,169.13,253.44,253.67,16.7,16.7,34.21,32.63,49.57,50.61,26.33,30.82,25.63,79.63-2.72,108.84-40.2,41.43-81.33,81.97-122.11,122.84-42,42.1-84.03,84.18-126.1,126.22-39.85,39.83-79.79,79.57-119.64,119.41-38.12,38.11-76.14,76.34-114.28,114.44-29.52,29.49-58.69,59.36-88.88,88.16-32.29,30.81-83.33,29.27-114.96-2.26-105.81-105.44-211.71-210.8-317.44-316.32-82.39-82.22-164.65-164.56-246.81-247.01-33.09-33.21-38.18-73.15-13.5-111.9,9.52-14.95,24.05-25.97,36.57-38.5,118.02-118.19,236.25-236.16,354.11-354.52,7.26-7.29,11.09-5.87,17.29.39,44.09,44.49,88.39,88.79,132.77,132.99,4.27,4.25,5.11,8.07,3.52,13.9-14.1,51.61,3.31,93.68,49.92,119.98,6.36,3.59,6.34,8.21,6.33,13.86-.04,95.14-.03,190.27-.03,285.41,0,17.08-.27,34.16.14,51.22.17,7.13-2.08,10.93-8.68,14.58-57.84,32.02-70.96,105.55-26.95,153.83,24.41,26.78,55.76,37.81,91.58,30.54,37.19-7.55,62.51-29.97,75.63-66,3.8-10.44,4.02-21.06,4.48-34.57Z"/>
</svg>