<?xml version="1.0" encoding="UTF-8"?>
<svg id="Layer_1" data-name="Layer 1" xmlns="http://www.w3.org/2000/svg" viewBox="0 0 1140.54 1144.93">
  <defs>
    <style>
      .cls-1 {
        fill: #fefefe;
      }

      .cls-1, .cls-2, .cls-3 {
        stroke-width: 0px;
      }

      .cls-2 {
        fill: none;
      }

      .cls-3 {
        fill: #171616;
      }
    </style>
  </defs>
  <line class="cls-2" x1="208.21" y1="855.2" x2="534.48" y2="857.16"/>
  <circle class="cls-1" cx="572.94" cy="579.02" r="565.91"/>
  <path class="cls-3" d="M673.84,826.97c33.32-4.14,64.39-9.57,94.45-19.47,91.86-30.24,143.57-94.76,159.07-188.97,8.49-51.6,11-103.26-7.02-153.92-8.88-24.98-21.74-47.54-38.93-67.55-4.72-5.49-5.46-9.76-3.33-16.82,13.78-45.77,9.74-90.93-5.88-135.6-2.41-6.9-6.36-8.84-13-8.82-22.08.06-42.79,6.16-62.97,14.22-26.5,10.58-51.28,24.53-74.84,40.54-6.18,4.2-11.52,5.03-18.83,3.2-87.49-21.9-175.2-21.98-262.73-.51-9.5,2.33-16.04.68-23.69-4.35-31.75-20.89-64.6-40.28-102.16-48.25-50.19-10.64-43.01-9.42-53.97,32.92-9.34,36.09-8.68,72.44,2.66,108.23,1.62,5.12,1.56,8.93-2.32,13.44-51.36,59.79-60.14,130.18-50.44,205.04,6.66,51.46,21.76,99.63,56.23,139.83,38.93,45.39,90.76,67.03,147.67,78.76,16.32,3.37,32.88,5.56,50.94,8.56-19.35,21.05-29.88,45.39-33.69,72.66-.73,5.19-5.14,5.79-8.74,7.32-63.77,27.25-120.93,8.86-157.59-50.23-18.56-29.91-43.44-51.66-79.18-58.67-8.2-1.61-16.14-1.35-24.09,1.05-12.02,3.62-13.93,10.16-5.18,19.49,3.98,4.24,8.49,8.28,13.46,11.23,28.84,17.12,49.53,42.16,60.03,72.92,23.44,68.68,89.36,93.46,154.03,87.87,12.13-1.05,24.28-2.49,36.22-4.79,6.56-1.26,7.83.77,7.84,6.57.08,33.01.9,66.02.4,99.02-.34,22.41-18.22,33.38-41.27,25.79-50.04-16.47-96.62-40.07-139.62-70.43-124.69-88.01-206.29-206.3-234.9-356.04C-28.69,475.71,32,290.25,194.78,142.15,301.69,44.88,430.49-3.61,574.95.21c227.21,6.01,397.71,111.6,501.64,312.97,148.69,288.08,28.65,637.27-262.5,779.53-19.83,9.69-40.25,18.14-61.32,24.86-25.38,8.09-42.06-3.95-42.07-30.49-.03-56.06.72-112.13-.02-168.18-.45-33.9-11.09-64.68-36.84-91.92Z"/>
</svg>