<?xml version="1.0" encoding="UTF-8"?>
<svg id="Layer_1" data-name="Layer 1" xmlns="http://www.w3.org/2000/svg" viewBox="0 0 786.35 893.87">
  <defs>
    <style>
      .cls-1 {
        fill: #e34e28;
      }

      .cls-1, .cls-2 {
        stroke-width: 0px;
      }

      .cls-2 {
        fill: #fefefd;
      }
    </style>
  </defs>
  <path class="cls-1" d="M394.8.15c123.66.02,247.31.02,370.97.02,21.28,0,21.71.03,19.91,20.38-8.62,97.41-17.61,194.79-26.25,292.2-6.82,76.91-13.23,153.86-20.01,230.77-7.27,82.55-14.86,165.07-22,247.63-.97,11.16-6.69,15.67-16.89,18.47-100.11,27.47-200.14,55.23-300.11,83.24-5.94,1.66-10.98,1.1-16.49-.43-101.02-28.09-202.02-56.27-303.15-83.96-9.2-2.52-10.66-8.09-11.32-15.64-5.42-62.05-10.78-124.11-16.37-186.14-7.62-84.58-15.55-169.13-23.12-253.71-6.88-76.89-13.46-153.81-20.16-230.72C6.75,86.87,4.44,51.39.28,16.12-1.58.37,6.03-.02,17.65,0c125.72.21,251.44.13,377.15.15ZM393.58,164.91c0,.07,0,.15,0,.22-5.15,0-10.31,0-15.46,0-73.19.02-146.38.09-219.57,0-7.23,0-13.23-.54-12.14,10.1,2.75,26.62,4.59,53.34,7.04,80,5.66,61.5,11.73,122.97,17.06,184.5,2,23.1,1.27,23.07,24.94,23.09,100.5.07,201.01.45,301.51,0,14.13-.06,17.35,3.74,15.76,17.66-3.81,33.23-6.1,66.65-8.22,100.04-.51,8.09-3.15,11.67-10.87,13.59-21.42,5.33-42.62,11.54-64,17.06-14.35,3.7-28.72,11.67-43.49,8.27-32.04-7.36-63.57-16.98-95.36-25.47-6.48-1.73-8.72-5.19-9.12-11.96-1.06-17.98-3.61-35.88-4.59-53.87-.61-11.3-3.96-16.23-16.6-15.56-22.62,1.2-45.37,1.04-68.01.1-12.25-.51-15.99,2.55-14.59,15.35,4.49,40.94,8.35,81.97,11.07,123.05.81,12.23,4.24,17.77,16.45,20.95,43.24,11.26,85.89,24.87,129.28,35.47,27.07,6.61,52.4,20.2,83.39,10.07,54.61-17.86,110.75-31.06,166.28-46.08,7.76-2.1,12.11-5.59,12.68-14.62,1.48-23.63,4.1-47.18,6.22-70.77,5.99-66.65,11.8-133.31,18.02-199.94,2-21.44,2.48-21.55-19.2-21.51-107.2.18-214.4.1-321.6,1.1-15.23.14-18.73-5.71-20.46-18.91-2.88-22.02-.23-44.4-5.28-66.2-2.95-12.72.58-17.57,15.41-17.46,113.9.88,227.81.7,341.72.83,20.74.02,20.68-.05,22.39-21.11,1.79-22.06,3.21-44.17,5.9-66.12,1.26-10.26-2.36-12.03-11.52-11.99-78.34.28-156.69.16-235.03.16Z"/>
  <path class="cls-2" d="M393.58,164.91c78.34,0,156.69.12,235.03-.16,9.17-.03,12.78,1.73,11.52,11.99-2.69,21.95-4.11,44.06-5.9,66.12-1.71,21.06-1.65,21.13-22.39,21.11-113.91-.13-227.82.04-341.72-.83-14.82-.11-18.35,4.74-15.41,17.46,5.05,21.81,2.4,44.19,5.28,66.2,1.73,13.19,5.23,19.05,20.46,18.91,107.19-1,214.4-.91,321.6-1.1,21.68-.04,21.21.08,19.2,21.51-6.22,66.63-12.03,133.29-18.02,199.94-2.12,23.59-4.74,47.14-6.22,70.77-.56,9.03-4.92,12.53-12.68,14.62-55.53,15.02-111.67,28.22-166.28,46.08-30.99,10.13-56.32-3.46-83.39-10.07-43.39-10.6-86.04-24.21-129.28-35.47-12.21-3.18-15.64-8.72-16.45-20.95-2.72-41.09-6.58-82.12-11.07-123.05-1.4-12.81,2.34-15.86,14.59-15.35,22.64.94,45.39,1.1,68.01-.1,12.64-.67,15.99,4.26,16.6,15.56.98,17.99,3.53,35.88,4.59,53.87.4,6.78,2.64,10.23,9.12,11.96,31.79,8.49,63.31,18.11,95.36,25.47,14.77,3.39,29.14-4.57,43.49-8.27,21.38-5.51,42.58-11.73,64-17.06,7.72-1.92,10.36-5.5,10.87-13.59,2.12-33.39,4.41-66.81,8.22-100.04,1.6-13.91-1.63-17.72-15.76-17.66-100.5.46-201,.07-301.51,0-23.66-.02-22.94,0-24.94-23.09-5.33-61.53-11.4-123-17.06-184.5-2.45-26.66-4.29-53.37-7.04-80-1.1-10.64,4.91-10.11,12.14-10.1,73.19.09,146.38.03,219.57,0,5.15,0,10.31,0,15.46,0,0-.07,0-.15,0-.22Z"/>
</svg>