<?xml version="1.0" encoding="UTF-8"?>
<svg id="Layer_1" data-name="Layer 1" xmlns="http://www.w3.org/2000/svg" viewBox="0 0 112.07 154.87">
  <defs>
    <style>
      .cls-1 {
        fill: #457796;
      }

      .cls-1, .cls-2 {
        stroke-width: 0px;
      }

      .cls-2 {
        fill: #de8f32;
      }
    </style>
  </defs>
  <path class="cls-2" d="M70.85,0c5.29,7.8,4.29,15.72.23,23.56-2.7,5.21-6.82,9.32-11.08,13.27-3.95,3.67-8.12,7.09-11.81,11.04-2.7,2.9-5.16,5.99-6.03,9.96-1.02,4.64-.06,9.1,1.73,13.4,1.95,4.69,5.15,8.5,8.57,12.15.47.5.94,1.01,1.52,1.62-.31.04-.47.12-.56.07-5.4-3.29-10.53-6.92-14.47-11.97-4-5.13-6.18-10.83-4.98-17.43.66-3.66,2.58-6.73,4.91-9.57,3.99-4.87,8.96-8.68,13.74-12.7,4.82-4.05,9.68-8.06,13.48-13.16,4.25-5.71,6.02-11.98,4.53-19.04-.08-.39-.05-.8-.07-1.2.1,0,.2,0,.3,0Z"/>
  <path class="cls-1" d="M22.31,126.05c-2.45.72-4.74,1.46-6.89,2.58-1.26.66-2.44,1.42-3.36,2.53-1.36,1.63-1.19,3.15.56,4.36,2.28,1.57,4.9,2.32,7.53,2.99,12.64,3.21,25.52,4.1,38.51,3.62,10.17-.37,20.31-1.17,30.18-3.9,2.57-.71,5.09-1.6,7.4-2.98,1.27-.76,2.47-1.61,3.16-2.95.48-.92.88-.72,1.43-.12,1.1,1.2,1.24,2.86.29,4.31-1.03,1.57-2.59,2.51-4.22,3.32-4.27,2.13-8.87,3.26-13.52,4.14-15.99,3.01-32.09,3.54-48.29,2.2-8.49-.7-16.92-1.74-25.15-4-2.58-.71-5.1-1.57-7.36-3.05-3.35-2.18-3.46-4.86-.22-7.2,3.87-2.8,8.42-4.01,12.97-5.13,1.8-.44,3.65-.7,5.48-1.07.51-.1.99-.23,1.5.34Z"/>
  <path class="cls-2" d="M84.87,32.31c-3.48,1.93-6.85,4.03-9.93,6.55-3.18,2.6-6.07,5.45-8.13,9.06-2.59,4.52-2.89,9.12-.6,13.86,1.27,2.64,2.81,5.12,4.28,7.64,3.22,5.53,2.29,9.8-1.46,14.46-1.68,2.1-3.74,3.8-5.95,5.32-.35.24-.77.71-1.18.24-.35-.39.15-.73.36-1.02,3.02-4.22,3.05-8.62.71-13.1-1.09-2.09-2.3-4.14-3.64-6.09-6.2-9.06-3.67-17.49,2.66-24.1,4.97-5.19,11.18-8.51,17.72-11.27,1.65-.7,3.35-1.29,5.02-1.93.05.13.1.25.15.38Z"/>
  <path class="cls-1" d="M38.66,85.14c-3.01.81-6.09,1.35-9.06,2.29-1.39.44-2.8.87-4.02,1.7-1.46.99-1.43,1.86.13,2.66,2.23,1.13,4.68,1.56,7.11,1.94,13.18,2.08,26.39,2.07,39.62.44,4.15-.51,8.27-1.15,12.34-2.15.49-.12.97-.18,1.46.12,1.2.73,2.42,1.42,3.77,2.21-.63.57-1.3.72-1.92.93-6.54,2.17-13.29,3.23-20.11,3.92-9.1.92-18.22.96-27.33.29-7.24-.53-14.43-1.44-21.33-3.88-1.19-.42-2.34-.94-3.39-1.65-1.83-1.24-1.83-2.64,0-3.93,1.07-.76,2.28-1.28,3.52-1.71,4.69-1.63,9.56-2.38,14.46-3,1.57-.2,3.14-.5,4.77-.16Z"/>
  <path class="cls-1" d="M83.54,110.84c-3.95,1.89-7.83,2.76-11.74,3.41-13.49,2.25-26.96,2.22-40.38-.56-2.9-.6-5.79-1.36-8.36-2.94-2.67-1.63-2.64-3.47.13-4.89,2.84-1.45,5.93-2.04,9.03-2.57.11.44-.17.44-.31.55-1.75,1.45-1.63,2.61.43,3.62,2.43,1.18,5.06,1.67,7.71,2,12.35,1.58,24.61,1.05,36.75-1.77.43-.1.86-.27,1.31,0,1.73,1.01,3.47,2.01,5.43,3.14Z"/>
  <path class="cls-1" d="M36.82,120.87c-1.09,1.78-.05,2.47,1.19,3,2.39,1.03,4.94,1.38,7.49,1.61,7.76.7,15.48.48,23.11-1.22.81-.18,1.43-.07,2.12.34,1.89,1.14,3.81,2.23,5.87,3.42-1.74,1.17-3.57,1.77-5.41,2.29-8.14,2.32-16.47,2.58-24.84,1.98-4.42-.32-8.79-1.03-12.99-2.51-1.48-.52-2.92-1.12-4.12-2.15-1.61-1.37-1.63-2.92.06-4.15,2.16-1.57,4.69-2.16,7.53-2.62Z"/>
  <path class="cls-1" d="M108.07,138.89c.21,1.22-.23,2.05-.72,2.84-1.13,1.8-2.78,3.04-4.57,4.1-5.22,3.1-10.98,4.74-16.86,5.98-14.55,3.07-29.26,3.66-44.06,2.55-7.09-.53-14.11-1.54-21-3.37-.47-.12-1-.12-1.34-.55.45-.54,1-.37,1.55-.28,14.81,2.34,29.69,2.61,44.62,1.47,9.01-.69,17.92-1.9,26.59-4.57,5.69-1.75,11.17-3.93,15.78-8.17Z"/>
  <path class="cls-1" d="M88.01,113.44c2.53-1.58,4.99-2.96,7.25-4.62,3.48-2.56,6.64-5.42,8.44-9.47.91-2.05,1.49-4.21,1.23-6.45-.54-4.67-4.24-7.9-8.95-7.93-.35,0-.71.03-1.06.02-.26-.01-.67.18-.72-.27-.04-.37.32-.48.6-.56,1.96-.53,3.95-.76,5.98-.64,5.54.34,9.94,3.69,11.02,8.51.71,3.17-.02,6.09-1.78,8.78-2.39,3.64-5.82,6.09-9.53,8.19-3.38,1.92-6.95,3.41-10.66,4.55-.52.16-1.03.42-1.82-.09Z"/>
</svg>