<?xml version="1.0" encoding="UTF-8"?>
<svg id="Layer_1" data-name="Layer 1" xmlns="http://www.w3.org/2000/svg" viewBox="0 0 893.96 1016.89">
  <defs>
    <style>
      .cls-1 {
        fill: #fefefe;
      }

      .cls-1, .cls-2, .cls-3 {
        stroke-width: 0px;
      }

      .cls-2 {
        fill: #f9d626;
      }

      .cls-3 {
        fill: #d3b62b;
      }
    </style>
  </defs>
  <path class="cls-3" d="M446.85.29c143.9,0,287.8,0,431.7,0,1.2,0,2.41-.04,3.61-.01,12.04.28,12.52.9,11.39,13.23-3.37,36.8-6.8,73.59-10.03,110.4-6.05,69.13-11.79,138.28-18.01,207.39-5.55,61.63-11.58,123.21-17.39,184.81-3.47,36.77-7.1,73.53-10.35,110.32-2.88,32.61-5.14,65.28-8.01,97.89-2.98,33.82-6.37,67.59-9.55,101.39-2.53,26.89-5.26,53.76-7.35,80.68-.53,6.88-4.08,9.09-9.74,10.63-31.17,8.5-62.45,16.65-93.4,25.87-42.11,12.54-84.48,24.14-126.79,35.96-32.25,9.01-64.35,18.58-96.55,27.76-12.37,3.53-24.75,7.2-37.33,9.8-10.7,2.21-20.3-3.8-30.22-6.5-37.23-10.14-74.31-20.88-111.44-31.4-27.32-7.73-54.64-15.45-81.95-23.19-23.58-6.68-47.15-13.44-70.75-20.08-22.19-6.24-44.38-12.47-66.64-18.48-5.18-1.4-5.9-4.66-6.31-9.32-3.86-44.28-8.01-88.54-12-132.81-3.27-36.2-6.35-72.41-9.68-108.6-4.19-45.43-8.64-90.84-12.82-136.27-4.13-44.89-7.96-89.81-12.09-134.7-4.58-49.67-9.49-99.3-14-148.98-3.23-35.6-5.97-71.25-9.09-106.86-3.09-35.31-6.38-70.61-9.59-105.92C1.71,25.24,1.1,17.16.14,9.11-.59,3,1.54-.07,7.94.12,11.84.24,15.76,0,19.67,0,162.06,0,304.46,0,446.85,0c0,.1,0,.2,0,.29ZM447.03,513.34c0,139.97,0,279.93,0,419.9,0,1.81.03,3.61,0,5.42-.11,5.99,2.55,8.29,8.49,6.61,26.5-7.49,52.99-15,79.52-22.39,32.9-9.15,65.84-18.18,98.75-27.28,34.93-9.66,69.85-19.4,104.8-28.97,4.89-1.34,6.03-4.14,6.78-8.98,1.44-9.28.55-18.65,1.83-27.79,5.21-37.35,6.63-75.04,10.49-112.5,1.63-15.77,2.14-31.67,4.05-47.4,3.82-31.47,5.81-63.1,8.63-94.66,1.44-16.09,1.85-32.32,4.13-48.29,3.27-22.83,4.68-45.82,6.35-68.73,1.86-25.37,4.42-50.7,6.47-76.03,2.39-29.45,5.36-58.93,8.21-88.38,2.91-30.07,4.81-60.23,7.51-90.32,3.35-37.21,7.14-74.38,10.61-111.59,1.02-10.89.48-11.31-10.18-11.31-115.29,0-230.57.1-345.86-.21-8.92-.02-10.81,2.73-10.79,11.18.26,140.57.18,281.14.19,421.71ZM413.76,496.37h.12c0-89.4,0-178.8,0-268.2,0-8.73-.19-17.46,0-26.18.09-4.25-1.59-6.07-5.75-6.07-24.94.01-49.89.11-74.83-.14-7-.07-9.24,2-9.24,9.53.18,146.59.02,293.18-.1,439.77,0,4.5-.45,8.99-.48,13.49-.03,5.01-2.61,6.43-7,5.08-23.08-7.12-46.59-12.64-69.92-18.83-29.15-7.73-58.2-15.89-87.16-24.31-7.24-2.1-8.89-.18-8.81,6.87.32,29.19.67,58.4,0,87.59-.22,9.54,4.34,12.18,11.96,13.96,12.48,2.91,24.9,6.07,37.27,9.42,23.62,6.39,47.16,13.06,70.77,19.48,24.8,6.74,49.65,13.31,74.47,19.99,19.9,5.36,39.82,10.64,59.65,16.25,6.7,1.89,9.28,1.45,9.25-6.93-.33-96.92-.21-193.84-.21-290.76Z"/>
  <path class="cls-2" d="M447.03,513.34c0-140.57.07-281.14-.19-421.71-.02-8.46,1.87-11.21,10.79-11.18,115.28.3,230.57.2,345.86.21,10.66,0,11.2.42,10.18,11.31-3.47,37.2-7.26,74.37-10.61,111.59-2.71,30.09-4.61,60.25-7.51,90.32-2.85,29.45-5.82,58.93-8.21,88.38-2.06,25.33-4.62,50.67-6.47,76.03-1.68,22.91-3.09,45.9-6.35,68.73-2.28,15.97-2.69,32.2-4.13,48.29-2.82,31.56-4.81,63.18-8.63,94.66-1.91,15.73-2.42,31.63-4.05,47.4-3.87,37.46-5.28,75.15-10.49,112.5-1.28,9.14-.39,18.52-1.83,27.79-.75,4.84-1.89,7.64-6.78,8.98-34.96,9.57-69.87,19.31-104.8,28.97-32.91,9.1-65.85,18.12-98.75,27.28-26.53,7.38-53.03,14.89-79.52,22.39-5.94,1.68-8.6-.62-8.49-6.61.03-1.81,0-3.61,0-5.42,0-139.97,0-279.93,0-419.9ZM668.14,303.1v-.17c26.49,0,52.99-.01,79.48,0,14.35,0,14.9.07,15.92-13.61,2.09-28.16,3.45-56.38,5.29-84.57.4-6.1-1.48-8.82-8.02-8.44-12.29.7-24.62,1.13-36.93,1.17-76.47.25-152.95.56-229.42.25-9.86-.04-11.54,3.15-11.52,12.07.25,80.02,1.33,160.02,3.18,240.03.97,41.83.69,83.69.43,125.53-.05,8.27,2.59,10.76,10.3,9.4,10.3-1.82,20.66-3.28,30.95-5.13,23.13-4.15,46.12-9.45,69.4-12.37,18.39-2.31,36.38-6.65,54.75-8.96,7.1-.9,8.53.84,8.24,7.04-1.14,24.61-2.22,49.21-3.11,73.83-.18,5-2.27,6.16-7.04,6.89-12,1.81-23.81,5.22-35.34,8.67-18.66,5.59-37.52,10.59-56.23,15.83-22.99,6.44-46.33,11.86-69.43,18.09-4.88,1.32-6.05,3.14-6,7.83.35,30.4.54,60.8.48,91.21-.01,5.83,2.25,7.72,7.56,6.56,6.92-1.51,13.84-3.02,20.68-4.83,20.92-5.54,41.78-11.29,62.7-16.85,20.98-5.57,41.99-11.04,63-16.49,16.26-4.22,32.55-8.31,48.82-12.49,11.14-2.87,22.26-5.78,33.38-8.73,4.18-1.11,6.59-3.74,6.93-8.22.62-8.07,1.76-16.13,1.96-24.21.54-21.95,3.14-43.77,4.95-65.59,3.34-40.36,6.27-80.76,10.21-121.06,2.13-21.81,1.88-43.82,5.91-65.46,1.64-8.8-.78-11.17-9.66-9.52-19.59,3.63-39.28,6.29-59.22,6.86-2.09.06-4.18.49-6.26.77-30.33,3.97-60.71,7.41-91.17,10.24-8.87.82-11.66-2.16-11.62-10.74.24-44.86.24-89.72,0-134.58-.04-7.86,2.8-10.48,10.59-10.39,28.6.34,57.2.13,85.81.13Z"/>
  <path class="cls-1" d="M413.76,496.37c0,96.92-.12,193.84.21,290.76.03,8.38-2.55,8.83-9.25,6.93-19.83-5.61-39.75-10.89-59.65-16.25-24.82-6.68-49.67-13.25-74.47-19.99-23.61-6.42-47.15-13.09-70.77-19.48-12.37-3.35-24.79-6.51-37.27-9.42-7.62-1.78-12.18-4.42-11.96-13.96.67-29.18.32-58.39,0-87.59-.08-7.04,1.57-8.97,8.81-6.87,28.96,8.42,58.01,16.58,87.16,24.31,23.33,6.19,46.84,11.71,69.92,18.83,4.39,1.35,6.96-.06,7-5.08.03-4.5.47-8.99.48-13.49.12-146.59.28-293.18.1-439.77,0-7.54,2.23-9.61,9.24-9.53,24.94.25,49.88.15,74.83.14,4.17,0,5.85,1.82,5.75,6.07-.19,8.72,0,17.45,0,26.18,0,89.4,0,178.8,0,268.2h-.12Z"/>
  <path class="cls-1" d="M668.14,303.1c-28.6,0-57.21.2-85.81-.13-7.8-.09-10.64,2.53-10.59,10.39.24,44.86.24,89.72,0,134.58-.05,8.58,2.75,11.57,11.62,10.74,30.46-2.83,60.84-6.28,91.17-10.24,2.09-.27,4.17-.71,6.26-.77,19.94-.57,39.63-3.23,59.22-6.86,8.88-1.65,11.3.72,9.66,9.52-4.03,21.63-3.78,43.65-5.91,65.46-3.94,40.3-6.87,80.7-10.21,121.06-1.81,21.82-4.41,43.64-4.95,65.59-.2,8.08-1.34,16.13-1.96,24.21-.34,4.47-2.75,7.11-6.93,8.22-11.12,2.94-22.24,5.86-33.38,8.73-16.27,4.19-32.56,8.28-48.82,12.49-21.01,5.45-42.02,10.92-63,16.49-20.91,5.55-41.78,11.3-62.7,16.85-6.84,1.81-13.77,3.32-20.68,4.83-5.31,1.16-7.58-.73-7.56-6.56.06-30.4-.13-60.81-.48-91.21-.05-4.69,1.11-6.51,6-7.83,23.1-6.23,46.43-11.65,69.43-18.09,18.72-5.24,37.58-10.24,56.23-15.83,11.53-3.45,23.34-6.85,35.34-8.67,4.77-.72,6.86-1.89,7.04-6.89.88-24.62,1.97-49.22,3.11-73.83.29-6.2-1.14-7.94-8.24-7.04-18.37,2.32-36.36,6.66-54.75,8.96-23.28,2.92-46.27,8.22-69.4,12.37-10.29,1.85-20.65,3.3-30.95,5.13-7.71,1.36-10.35-1.13-10.3-9.4.26-41.84.54-83.71-.43-125.53-1.85-80-2.93-160.01-3.18-240.03-.03-8.92,1.66-12.11,11.52-12.07,76.47.31,152.94,0,229.42-.25,12.31-.04,24.63-.47,36.93-1.17,6.54-.37,8.42,2.34,8.02,8.44-1.84,28.18-3.2,56.4-5.29,84.57-1.02,13.69-1.58,13.62-15.92,13.61-26.49-.02-52.99,0-79.48,0v.17Z"/>
</svg>