<?xml version="1.0" encoding="UTF-8"?>
<svg id="Layer_1" data-name="Layer 1" xmlns="http://www.w3.org/2000/svg" viewBox="0 0 1061.45 1179.57">
  <defs>
    <style>
      .cls-1 {
        fill: #9a435c;
      }

      .cls-1, .cls-2, .cls-3, .cls-4, .cls-5 {
        stroke-width: 0px;
      }

      .cls-2 {
        fill: #99435c;
      }

      .cls-3 {
        fill: #98415a;
      }

      .cls-4 {
        fill: #98425b;
      }

      .cls-5 {
        fill: #fdfdfd;
      }
    </style>
  </defs>
  <path class="cls-5" d="M1054.46,61.17c16.49-46.32,4.66-62.18-44.43-61.12-98.04,2.13-196.16.63-294.24.58-79.1-.06-158.2-.07-237.3-.05q-122.59.03-84.96,110.82c30.33,89.3,58.89,179.25,91.79,267.6,14.81,39.77,18.09,63.71-25.1,92.69-72.35,48.55-78.07,122.08-28.12,189.28,28.53,38.38,21.95,60.86-7.2,86.82-30.53,27.18-60.88,55.19-94.58,78.05-30.22,20.5-65.59,48.21-96.97-.18-26.05-40.18-33.72-81.25,3.59-119.63,10.86-11.17,26-18.27,36.55-29.65,49.1-53.01,56.94-113.08,15.87-172.02-40.9-58.7-100.95-75.79-167.15-46.36-71.64,31.85-101.62,97.4-71.27,163.33,27.35,59.4,7.79,99.9-11.77,148.89-46.43,116.3-67.41,235.77,28.62,335.91,101.17,105.51,223.36,80.04,343.08,30.89,29.15-11.97,57.54-25.99,85.55-40.46,95.76-49.49,193.93-90.99,302.58-103.91,109.47-13.02,210.62-48.77,236.44-168.65,22.05-102.34-3.25-207.21-20.53-309.75-2.68-15.88-20.16-35.28-35.62-41.96-58.4-25.22-43.94-62.77-27.79-107.45,36.33-100.5,67.14-202.97,102.98-303.65ZM761.92,534.37c-24.18,21.8-62.75,21.68-85.76-.77-21.68-21.15-55.3-45.25-30.77-87.71,23.07-39.92,42.34-82.02,70.34-137.04,29.49,57.63,47.79,97.39,69.68,135.07,22.78,39.21.73,68.6-23.49,90.45Z"/>
  <path class="cls-4" d="M59.34,924.22c-3.61-59.28,18.77-114.65,45.17-168.6,7.66-15.65,12.13-40.22,35.97-36.99,27.69,3.75,17.67,28.97,17.43,45.49-.56,39.84,12.56,73.48,37.92,103.69,34.44,41.03,71.19,57.08,123.42,26.71,41.11-23.9,81.33-47.78,115.98-80.5,48.68-45.97,82.92-110.15,163.96-114.29,19-.97,39.33-29.25,54.14-48.68,52.49-68.84,78.82-70.45,125.73-3.19,37.9,54.34,89.14,85.74,153.72,62.69,58.17-20.77,59.59,14.96,60.11,49.2,1.33,87.61-47.96,153.46-128.66,163.04-180.17,21.39-336.08,101.02-496.84,172.8-76.87,34.32-158.77,46.32-235.59-4.34-58.62-38.66-75.67-97.66-72.45-167.01Z"/>
  <path class="cls-3" d="M857.77,466.02c-50.97-100.52-93.09-183.59-141.05-278.17-45.96,89-88.2,170.78-142.98,276.84-50.26-146.47-93.65-272.94-140.65-409.9,180.3,0,347.47-.17,514.65.18,24.73.05,53.71-4.68,38.18,38.97-41.87,117.68-81.52,236.14-128.15,372.07Z"/>
  <path class="cls-1" d="M979.14,578.22c-1.86,50.91-29.16,82.11-80.44,83.68-47.08,1.44-76.7-27.18-81.2-73.76-5.09-52.64,26.39-86.14,74.92-89.73,49-3.62,81.43,26.3,86.72,79.81Z"/>
  <path class="cls-2" d="M178.25,664.39c-50.39-6.81-80.24-33.1-80.35-85.42-.11-48.9,30.92-78.03,74.89-79.68,47.85-1.8,83.98,24.48,84.78,78.79.78,52.31-28.64,79.11-79.32,86.31Z"/>
  <path class="cls-2" d="M540.74,663.92c-49.51-6.29-81.12-30.15-81.69-83.57-.58-54.24,32.76-82.44,81.59-81.98,44.18.42,76.05,28.2,77.97,76.9,2.07,52.58-27.61,79.43-77.87,88.65Z"/>
</svg>