<?xml version="1.0" encoding="UTF-8"?>
<svg id="Layer_1" data-name="Layer 1" xmlns="http://www.w3.org/2000/svg" viewBox="0 0 877.71 1062.44">
  <defs>
    <style>
      .cls-1 {
        fill: #fefefe;
      }

      .cls-1, .cls-2, .cls-3, .cls-4, .cls-5, .cls-6, .cls-7 {
        stroke-width: 0px;
      }

      .cls-2 {
        fill: #2c2611;
      }

      .cls-3 {
        fill: #202020;
      }

      .cls-4 {
        fill: #392d0d;
      }

      .cls-5 {
        fill: #362d0f;
      }

      .cls-6 {
        fill: #fdfdfd;
      }

      .cls-7 {
        fill: #fecc00;
      }
    </style>
  </defs>
  <path class="cls-3" d="M618.89,231.91c.17,22.5-1.57,45.05,1.85,67.43,5.3,34.69,22.61,63.83,43.04,91.47,22.24,30.07,47.58,57.72,68.62,88.74,31.63,46.62,57.46,95.75,67.22,152.01,5.92,34.13,4.7,67.95-5.23,101.18-1.69,5.65-1,7.94,4.27,10.53,17.55,8.64,24.87,24.79,29.68,42.49,1.47,5.42,2.85,10.89,3.83,16.41,3.12,17.67,10,33.3,22.67,46.44,7.81,8.1,13.79,17.72,18.22,28.21,9.21,21.78,4.88,39-13.98,53.46-16.93,12.98-36.72,20.88-55.6,30.3-24.83,12.39-46.9,27.75-65.34,49.03-22.8,26.32-50.94,44.91-86.14,51.32-41.36,7.53-80.29-13.88-95.84-53.17-1.18-2.98-.55-7.64-6.12-7.34-29.35,1.59-57.93-5.21-86.89-7.96-30.42-2.89-59.96,3.39-89.57,8.79-.33.06-.64.22-.96.24-19.97.76-34.82,7.92-48.5,24.64-20.17,24.66-50.77,26.04-80.57,23.33-21.55-1.96-42.69-7.45-61.55-17.84-32.82-18.08-68.47-23.38-104.75-27.28-10.84-1.17-21.72-2.54-32.36-4.84-37.21-8.04-50.81-29.59-42.55-66.72,1.08-4.83,1.84-9.9,3.9-14.32,7.46-16,5.18-32.3,2.46-48.73-1.08-6.52-2.14-13.07-2.76-19.64-2.9-30.88,9.03-53.23,38.47-62.74,27-8.72,46.63-23.81,62.49-47.04,7.66-11.23,11.72-20.44,10.88-34.45-2.45-40.69,8.51-79.24,24-116.52,26.02-62.62,64.34-117.5,106.63-169.98,28.98-35.96,44.51-77.5,49.56-123.38,3.48-31.59-2.08-62.76-2.39-94.16-.31-31.82-.29-63.5,7.9-94.66,15.21-57.91,52.68-91.57,110.91-102.59,30.52-5.77,61.28-6.66,91.68.68,55.16,13.31,84.8,51.61,99.84,103.74,9.34,32.37,12.04,65.62,12.96,99.09.22,7.94.03,15.89.03,23.83Z"/>
  <path class="cls-1" d="M537.05,322.16c21.37,75.04,49.56,145.74,85.11,213.56,18.51,35.3,31.86,72.55,39.57,111.71,1.04,5.28,3.1,7.38,8.46,6.91,2.91-.26,6.17-.13,8.83.95,5.76,2.33,7.17-.33,8.73-5.31,9.61-30.67,6.73-60.8-3.49-90.58-10.34-30.12-25.89-57.12-48.83-79.6-2.99-2.93-9.06-7.16-5.03-11.03,3.29-3.15,6.96,3.37,9.6,6.16,35.39,37.31,60.3,80.23,68.32,131.68,2.4,15.39,2.65,31.08-.36,46.47-1.44,7.37-.92,11.7,7.18,15.09,15.26,6.37,29.53,14.84,41.87,26.17,10.37,9.53,16,20.87,14.14,35.3-.5,3.87-1.01,7.12-6.29,6.81-6.44-.39-3-4.55-2.9-7.15.3-8.43-2.14-15.97-8.33-21.54-23.57-21.21-51.23-33.96-82.83-36.5-18.69-1.5-31.75,9.78-34.82,28.32-.97,5.83-2.91,8.95-8.37,11.71-25.24,12.76-34.16,36.35-39.39,62.01-4.84,23.76-5.74,47.94-7.09,72.05-1.15,20.37-8.04,39.4-13.06,58.88-.94,3.65-3.66,5.29-6.42,7.12-45.7,30.35-95.13,47.13-150.73,41.43-28.5-2.92-54.67-12.52-78.4-28.41-8.39-5.62-11.87-15.7-18.21-23.27-5.03-6-9.52-12.44-14.49-18.99,35.49-5.69,44.77-24.84,27.62-56.23-14.14-25.88-35.92-44.75-59.15-62.03-9.28-6.9-19-13.24-28.81-19.36-43.18-26.95-61.79-65.54-55.33-116.07,6.8-53.25,33.02-98.18,61.49-145.18.39,9.69-3.19,15.25-6.04,20.86-13.74,27.07-28.64,53.56-35.89,83.48-8.89,36.7-8.4,72.09,12.24,105.25.84,1.35,1.81,2.64,3.58,5.21,2.01-15.81,3.49-30.32,5.74-44.71,6.82-43.6,24.42-83.43,43.05-122.97,22.67-48.12,44.24-96.72,56.1-148.94,2.64-11.62,4.93-23.31,5.48-35.24.28-6.07,1.96-6.52,7.02-3.36,9.6,5.99,18.41,12.86,26.77,20.44,25.32,22.94,56.01,27.73,86.09,11.93,19.85-10.42,38.86-22.34,59.79-30.78,10.79-4.35,18.95-12.85,27.5-22.25Z"/>
  <path class="cls-7" d="M258.2,1036.3c-24.84-.7-48.91-6.06-70.62-17.66-33.2-17.74-68.8-24.6-105.54-28.18-13.16-1.28-26.33-2.53-39.21-5.88-22.87-5.96-31.22-18.28-27.61-41.54.96-6.18,1.83-12.58,4.14-18.31,7.63-18.91,7.04-37.99,3.33-57.54-1.72-9.05-2.32-18.37-2.65-27.6-.64-17.48,8.27-29.34,23.38-37,3.82-1.94,7.82-3.79,11.95-4.79,24.78-6,43.43-20.12,56.8-41.67,2.78-4.48,6.09-8.67,9.49-12.72,18.19-21.73,42.07-24.17,64.68-6.69,9.8,7.57,17.89,16.66,23.84,27.56,12.98,23.79,25.88,47.62,38.92,71.38,11.52,21,27.31,38.91,42.09,57.54,12.95,16.33,25.64,32.87,34.83,51.73,18.37,37.69.16,77.14-40.31,87.92-9.06,2.41-18.16,3.55-27.5,3.43Z"/>
  <path class="cls-7" d="M566.2,974.22c.74-19.27,7.09-43.29,15.24-66.67,12.05-34.6,13.73-70.57,16.53-106.48,1.42-18.2,4.52-36.09,12.08-52.9,3.87-8.6,9.65-15.76,17.2-21.44,4.08-3.07,6.58-3.56,7.5,2.96,1.91,13.57,6.12,26.41,14.51,37.57,11.52,15.33,26.62,21.07,45.35,16.96,18.15-3.99,34-12.57,48.03-24.59,13.96-11.96,37.13-12.77,52.64-2.15,13.54,9.28,18.07,23.7,20.74,38.23,4.6,25,13.02,47.47,31.19,66.09,7.77,7.97,13.04,18.26,15.64,29.51,2.05,8.86-.38,16.14-6.71,22.55-12.41,12.56-28.42,19.18-43.96,26.34-33.37,15.39-63.41,34.57-87.65,63.16-19.63,23.15-45.3,38.25-75.83,43.99-43.57,8.19-82.58-23.53-82.51-73.12Z"/>
  <path class="cls-7" d="M411.21,376.48c-13.34.25-26.97-4.6-38.56-15.17-10.5-9.58-21.53-18.43-33.73-25.92-9.69-5.95-17.44-14.15-21.58-25.16-3.22-8.55-2.6-17.04,4.44-22.83,19.35-15.92,38.41-32.49,59.3-46.2,22.93-15.05,48.08-11.33,70.83,1.28,18.94,10.49,38.74,18.34,58.69,26.3,32.66,13.04,36.14,37.04,9.13,60.03-6.85,5.83-14.39,10.7-22.94,13.5-13.99,4.59-26.32,12.16-38.6,20.01-15.48,9.9-29.63,14.21-46.98,14.16Z"/>
  <path class="cls-1" d="M494.52,254.22c14.34-15.23,14.11-32.44,7.55-50.11-3.08-8.29-8.67-15.38-18.63-15.57-9.37-.17-14.74,6.26-19.05,13.74-5.83,10.12-5.71,21.36-5.71,32.95-8.1-2.59-15.55-5.09-23.08-7.33-3.03-.9-4.13-2.59-4.3-5.67-1.23-22.29,3.28-42.93,18.98-59.59,21.12-22.41,52.57-20.27,71.31,4.29,19.41,25.45,20.66,65.55,3.33,92.43-2.98,4.62-5.49,5.36-10.19,3.16-6.49-3.03-13.24-5.47-20.22-8.3Z"/>
  <path class="cls-6" d="M372.66,235.73c-.47-10.45-.82-20.72-6.35-29.73-3.18-5.18-6.88-10.06-13.86-9.5-7.03.56-10.08,5.99-12.04,11.7-5.25,15.35-3.64,30.15,6.21,43.15,3.16,4.16,2.95,6.2-1.09,8.03-4.01,1.82-6.99,10.06-12.85,2.8-7.41-9.17-12.11-19.8-13.89-31.32-3.45-22.43-2.85-44.5,13.15-62.7,13.08-14.87,31.76-14.44,44.69.53,13.47,15.58,17.74,34.24,16.98,54.41-.12,3.14-1.25,4.71-4.15,5.77-5.51,2.02-10.88,4.41-16.81,6.85Z"/>
  <path class="cls-2" d="M410.22,345.92c-31.13-.46-52.57-14.05-71.83-32.2-3.57-3.37-7.99-6.07-9.73-11.01-.87-2.47-1.92-5.47,1.32-6.93,2.65-1.2,4.29,1.03,5.47,3.05,6.89,11.86,18.05,19.24,28.88,26.7,21.27,14.65,44.33,18.13,68.89,9.16,26.67-9.74,51.13-23.06,70.88-43.96,2.29-2.42,5.13-4.02,7.68-1.55,2.47,2.38-.14,5.01-1.79,6.84-6.9,7.68-14.96,14.15-23.68,19.49-24.61,15.08-49.69,29.24-76.09,30.42Z"/>
  <path class="cls-4" d="M393.66,248.96c3,.28,7.42.84,6.35,3.25-2.3,5.16-8.46,6.16-13.48,7.69-2.24.68-6.25-.85-5.24-4,1.86-5.82,7.64-6.22,12.38-6.95Z"/>
  <path class="cls-5" d="M431.85,248.92c4.65.72,9.46,1.58,12.48,6.1.85,1.27.38,2.67-.64,3.51-4.79,3.95-8.53-.13-12.39-1.99-2.26-1.09-6.77-.61-5.59-5.02.63-2.37,3.58-2.43,6.14-2.6Z"/>
</svg>