<?xml version="1.0" encoding="UTF-8"?>
<svg id="Layer_1" data-name="Layer 1" xmlns="http://www.w3.org/2000/svg" viewBox="0 0 1028.47 1028.47">
  <defs>
    <style>
      .cls-1 {
        fill: #fefefe;
      }

      .cls-1, .cls-2 {
        stroke-width: 0px;
      }

      .cls-2 {
        fill: #14aa51;
      }
    </style>
  </defs>
  <circle class="cls-2" cx="514.24" cy="514.24" r="514.24"/>
  <path class="cls-1" d="M640.59,433.9c-18.3-86.02-74.36-148.89-129.73-213.02-4.25,6.91-8.82,14.47-15.67,20.31-50.13,42.68-82.95,96.26-100.79,159.42-31.64,112.05-14.34,214.16,69.08,297.88,29.54,29.65,50.2,58.12,47.36,100.53-.32,4.75.61,8.71,7.09,8.57,5.42-.12,6.23-3.36,6.68-7.5.36-3.3,1.13-6.56,1.4-9.86,2.98-35.95,16.28-63.28,43.87-90.85,73.11-73.04,92.16-164.65,70.71-265.48ZM526.88,708.97c-11.8-14.44-14.91-32.03-15.41-48.73-1.73-57.51-2.02-115.08,2.09-172.55h0c-1.23-10.6-.79-21.02,3.48-31.24,4.2,10.09,5.14,20.38,3.82,30.96h0,0c2.01,40.85,4.62,81.68,5.83,122.55.96,32.47.19,64.99.19,99Z"/>
</svg>