<?xml version="1.0" encoding="UTF-8"?>
<svg id="Layer_1" data-name="Layer 1" xmlns="http://www.w3.org/2000/svg" viewBox="0 0 1062.41 1062.41">
  <defs>
    <style>
      .cls-1 {
        fill: #f9fdfc;
      }

      .cls-2 {
        fill: #cdeef8;
      }

      .cls-2, .cls-3, .cls-4 {
        stroke-width: 0px;
      }

      .cls-5 {
        letter-spacing: 0em;
      }

      .cls-5, .cls-6 {
        fill: #e4882e;
      }

      .cls-7 {
        font-size: 215.59px;
      }

      .cls-7, .cls-6 {
        font-family: ArialRoundedMTBold, 'Arial Rounded MT Bold';
      }

      .cls-3 {
        fill: #4478a0;
      }

      .cls-6 {
        font-size: 18.82px;
      }

      .cls-4 {
        fill: #f0fbfd;
      }
    </style>
  </defs>
  <g>
    <circle class="cls-3" cx="531.2" cy="531.2" r="531.2"/>
    <text class="cls-7" transform="translate(149.25 684.79)"><tspan class="cls-1" x="0" y="0">My</tspan><tspan class="cls-5" x="296.43" y="0">SQL</tspan></text>
    <g>
      <path class="cls-4" d="M827.6,411.66c22.35,9.48,41.67,23.38,58.93,40.32,7.67,7.53,4.95,11.58-4.33,13.4-10.52,2.06-28.29.24-29.59,7.95-1.81,10.73,16.3,12.37,23.96,20.42,6.21,6.52,14.9,10.93,17.5,23.6-16.94-12.39-35.51-17.78-49.85-30.55-5.64-5.03-12.94-10.98-11.71-18.18,1.4-8.18,11.66-7.64,18.47-9.39,7.71-1.98,15.82-2.37,26.92-3.88-16.32-13.6-30.54-26.18-49.02-30.32-16.99-3.8-24.72-15.13-31.32-29.02-14.01-29.49-23.83-61.21-46.11-86.31-24.98-28.13-52.51-50.94-92.39-55.19-11.63-1.24-22.29-10.79-33.62-16.03-4.47-2.06-10-5.46-14.38-.53-4.95,5.56-1.13,11.41,2.52,15.5,15.42,17.28,22.26,38.59,30.01,59.7,7.42,20.21,10.03,38.23,8.21,60.17-1.64,19.83-2.23,39.84,14.57,57.47,5.19-16.14,2.82-33.25,17.82-43.8,9.29,18.52,18.36,36.58,27.42,54.64-14.14-4.49-18.45-17.06-25.3-26.99-4.81,1.49-3.29,4.95-3.85,7.32-1.81,7.64-.99,17.38-11.19,19.27-11.19,2.08-16.51-6.6-20.84-14.81-11.99-22.75-11.45-46.55-4.14-70.43,2.73-8.92,2.24-15.92-3.49-24.01-5.87-8.28-9.97-18.23-12.96-28.03-4.97-16.25-12.66-30.74-23.35-43.77-7.08-8.63-11.37-18.68-4.79-28.48,6.9-10.28,19.02-10.23,27.97-4.21,28.79,19.39,65.95,17.25,94,39.59,29.48,23.48,53.93,49.73,68.64,84.74,6.42,15.29,14.32,29.96,21.55,44.92,4.78,4.78,10.29,8.9,13.74,14.91Z"/>
      <path class="cls-2" d="M660.65,276.94c9.48-2.6,13.44,1.81,14.7,9.48.27,1.67-2.23,5.42-2.57,5.32-7.04-2.14-8.83-8.57-12.13-14.8Z"/>
    </g>
  </g>
  <text class="cls-6" transform="translate(888.57 679.4) scale(1.37 1)"><tspan x="0" y="0">TM</tspan></text>
</svg>