<?xml version="1.0" encoding="UTF-8"?>
<svg id="Layer_1" data-name="Layer 1" xmlns="http://www.w3.org/2000/svg" viewBox="0 0 989.89 989.55">
  <defs>
    <style>
      .cls-1 {
        fill: #fefefe;
      }

      .cls-1, .cls-2, .cls-3 {
        stroke-width: 0px;
      }

      .cls-2 {
        fill: none;
      }

      .cls-4 {
        fill: #010101;
        stroke: #fff;
        stroke-miterlimit: 10;
        stroke-width: 3px;
      }

      .cls-3 {
        fill: #f8f8f8;
      }
    </style>
  </defs>
  <path class="cls-1" d="M755.41,898.02c-83.84-128.24-168.5-255.94-252.96-383.78-40.69-61.57-81.48-123.09-122.17-184.66-11.41-17.27-39.26-25.54-57.99-16.72-6.98,3.3-11.45,8.24-11.44,17.07.2,124.4.11,248.79.22,373.19.01,13.67,7.16,20.1,21.33,20.33,36.09.59,37.42-.27,38.25-36.1.72-31.29.34-62.61.49-93.93.24-53.47.5-106.95.84-160.42.01-2.92-1.07-6.16,2.78-9.7,115.24,170.59,228.35,342.42,356.74,504.3l32.88-20.61c-2.03-1.15-6.4-5.06-8.95-8.96Z"/>
  <path class="cls-4" d="M731.18,928.29c-51.14,28.21-103.63,45.78-158.94,53.89-92.64,13.58-182.79,4.06-269.22-33.35-114.71-49.65-199.96-130.69-253.51-243.44C-40.08,516.74-2.16,295.37,145.53,147.01,229.27,62.88,330.95,13.59,449.85,3.57c153.01-12.89,285.61,34.54,394.8,142.25,78.04,76.99,126.65,170.84,139.45,280.2,23.29,199-48.38,357.49-209.56,476.12-8.91,6.56-12.32,7.46-19.43-3.41-83.84-128.24-168.49-255.95-252.96-383.78-40.69-61.58-81.48-123.09-122.16-184.66-11.41-17.27-39.26-25.54-57.99-16.72-6.98,3.29-11.45,8.24-11.44,17.07.2,124.39.11,248.79.22,373.18.01,13.67,7.15,20.1,21.32,20.33,36.09.59,37.42-.27,38.24-36.09.72-31.3.34-62.62.49-93.93.25-53.48.51-106.95.84-160.43.02-2.91-1.06-6.15,2.78-9.69,115.24,170.59,228.35,342.42,356.74,504.29ZM673.05,657.31c.95-.25,1.9-.49,2.84-.74,0-17.58.02-35.16,0-52.74-.13-95.24-.23-190.48-.48-285.71-.03-12.62-6.65-19.08-19.08-19.85-38.01-2.34-41.97,1.37-41.97,39.46,0,64.36,1.02,128.75-.5,193.08-.61,25.54,4.44,47.22,19.96,67.62,14.25,18.74,26.25,39.19,39.24,58.88Z"/>
  <path class="cls-3" d="M673.05,657.31c-12.99-19.69-24.99-40.14-39.24-58.88-15.52-20.4-20.56-42.08-19.96-67.62,1.53-64.33.5-128.72.5-193.08,0-38.09,3.96-41.8,41.97-39.46,12.43.77,19.05,7.23,19.08,19.85.25,95.24.34,190.48.48,285.71.02,17.58,0,35.16,0,52.74-.95.25-1.9.49-2.84.74Z"/>
  <line class="cls-2" x1="759.37" y1="905.46" x2="728.78" y2="927.6"/>
</svg>