<?xml version="1.0" encoding="UTF-8"?>
<svg id="Layer_1" data-name="Layer 1" xmlns="http://www.w3.org/2000/svg" viewBox="0 0 1145.02 1182.19">
  <defs>
    <style>
      .cls-1 {
        fill: #356690;
      }

      .cls-1, .cls-2, .cls-3 {
        stroke-width: 0px;
      }

      .cls-2 {
        fill: #0a0a0a;
      }

      .cls-3 {
        fill: #fcfcfc;
      }
    </style>
  </defs>
  <path class="cls-2" d="M4.17,228.19c.85-5.92,1.89-11.79,3.16-17.58,7.91-35.82,22.03-70.47,43.79-100.16,20.25-27.64,46.81-50.21,77.3-65.83,33.01-16.91,69.73-25.53,106.62-27.93,5.05-.33,10.12-.54,15.18-.65,63.82-1.34,125.5,10.17,186.18,28.58,7.62,2.31,14.17,4.62,22.39.09,65.46-36.06,135.93-36.49,207.26-26.84,13.63,1.84,25.79.13,38.59-2.86,98.56-23.02,195.45-22.43,288.85,21.98,32.31,15.36,60.09,37.17,86.74,60.98,46.56,41.61,61.5,94.4,58.63,154.47-4.41,92.42-30.27,179.65-63.68,265.07-21.51,55-47.66,107.82-78.25,160.87,18.61,1.99,34.23-2.98,50.07-4.82,9.77-1.14,19.42-3.83,29.2-4.34,26.15-1.37,48.52,6.76,61.44,30.89,12.85,23.99,8.12,47.39-7.92,68.21-25.73,33.43-61.01,53.67-99.95,67.28-34.36,12.01-70.43,17.06-106.71,15.39-15.83-.73-18.72,4.57-18.97,18.34-.85,48.04-5.27,95.73-15.36,142.87-4.03,18.81-9.67,37.34-17.52,54.92-7.19,16.1-16.27,31.39-27.42,45.07-10.81,13.26-23.52,24.92-37.68,34.51-14.91,10.1-31.32,17.86-48.39,23.53-9.28,3.08-18.77,5.56-28.35,7.52-20.24,4.13-41.23,4.55-61.83,4.44-12.63-.07-25.33-.78-37.14-5.65-4.8-2-9.49-4.24-14.05-6.74-8.45-4.64-16.39-10.17-23.61-16.56-13.61-12.07-24.28-27.03-32.3-43.3-8.25-16.74-13.83-34.68-18.19-52.79-3.25-13.51-5.82-27.16-8.2-40.84-7.52-43.22-6.48-87.38-8.62-133.07-43.96,16.78-87.27,18.62-131.23,8.94-22.13-4.87-42.8-12.86-59.91-28.14-5.29-4.72-9.01-8.11-16.32-2.45-42.53,32.9-101.7,28.64-147.97-22.21-41.52-45.63-65.21-101.27-86.19-158.06-18.7-50.59-34.47-102.25-47.73-154.52-6.66-26.24-12.69-52.64-18.15-79.16-5.18-25.13-10.76-50.76-13.94-76.45C.65,344.02-.45,316.61.16,289.27c.45-20.19,1.12-40.9,4.01-61.08ZM552.02,828.84c0,7.15-.05,14.12,0,21.09.47,61.78-.71,123.78,9.48,184.89,8.77,52.65,31.88,97.35,87.49,113.34,91.58,26.34,186.28-32.35,204.3-125.49,12.48-64.54,18.88-130,26.36-195.25,1.51-13.2,4.95-15.92,17.79-13.75,41.68,7.06,82.65,1.41,122.28-12.03,32.1-10.89,60.74-28.12,82.34-55.1,7.79-9.73,11.44-20.88,5.05-32.91-6.16-11.6-17.66-13.29-28.93-12.95-9.76.29-19.48,2.69-29.17,4.42-27.9,4.98-55.96,8.99-84.23,4.56-23.56-3.69-24.26-6.28-12.08-26.14,72.45-118.12,124.43-244.01,147.34-381.43,13.96-83.72,3.53-157.53-74.53-207.68-9.93-6.38-19.36-13.63-29.65-19.37-94.82-52.86-194.62-52.47-296.33-26.14-13.8,3.57-26.28,4.32-40.19,1.83-69.02-12.35-136.24-9.82-197.79,28.93-7.94,5-13.83,1.11-20.28-1.04-67.92-22.57-137.23-36.62-209.11-30.21-85.21,7.6-149.84,46.07-181.82,128.9-21.84,56.58-24.35,115.95-16.2,174.95,13.59,98.4,37.8,194.62,70.05,288.6,20.69,60.27,42.96,120.25,85.22,169.64,42.74,49.95,90.25,49.04,133.11-.81,26.55-30.89,53.69-61.27,80.69-91.76,4.08-4.6,7.38-11.94,15.8-7.53,17.51,9.17,37.07,11.4,56.98,15.53-13.13,23.7-30.33,39.06-56.2,44-15.44,2.94-30.84,6.65-45.78,11.49-14.59,4.72-28.86,11.58-30.33,29.67-1.52,18.72,10.83,29.17,25.84,35.67,56.61,24.5,112.15,23.82,165.73-9.21,4.78-2.94,8.08-8.48,16.78-8.7Z"/>
  <path class="cls-3" d="M552.02,828.84c-8.69.23-12,5.76-16.78,8.7-53.58,33.03-109.13,33.71-165.73,9.21-15.01-6.5-27.36-16.95-25.84-35.67,1.47-18.1,15.74-24.95,30.33-29.67,14.94-4.84,30.34-8.55,45.78-11.49,25.87-4.93,43.06-20.29,56.2-44-19.91-4.13-39.47-6.37-56.98-15.53-8.42-4.41-11.72,2.93-15.8,7.53-27,30.5-54.14,60.88-80.69,91.76-42.86,49.85-90.37,50.76-133.11.81-42.26-49.39-64.53-109.37-85.22-169.64-32.25-93.97-56.46-190.19-70.05-288.6-8.15-59-5.64-118.37,16.2-174.95,31.98-82.84,96.61-121.31,181.82-128.9,71.88-6.41,141.19,7.65,209.11,30.21,6.45,2.14,12.34,6.04,20.28,1.04,61.55-38.75,128.76-41.28,197.79-28.93,13.91,2.49,26.39,1.74,40.19-1.83,101.71-26.33,201.51-26.72,296.33,26.14,10.28,5.73,19.71,12.99,29.65,19.37,78.07,50.14,88.49,123.96,74.53,207.68-22.91,137.42-74.89,263.31-147.34,381.43-12.18,19.86-11.48,22.44,12.08,26.14,28.27,4.43,56.33.42,84.23-4.56,9.69-1.73,19.41-4.13,29.17-4.42,11.27-.34,22.78,1.36,28.93,12.95,6.38,12.02,2.73,23.17-5.05,32.91-21.59,26.98-50.24,44.21-82.34,55.1-39.63,13.44-80.6,19.09-122.28,12.03-12.83-2.17-16.27.55-17.79,13.75-7.48,65.25-13.88,130.71-26.36,195.25-18.01,93.14-112.72,151.83-204.3,125.49-55.61-15.99-78.72-60.69-87.49-113.34-10.18-61.12-9.01-123.12-9.48-184.89-.05-6.97,0-13.94,0-21.09ZM365.79,342.42c29.8-15.47,56.9-24.93,85.69-28.85,49.5-6.74,89.57,12.34,101.65,54.32,23.35,81.1,29.25,162.74-5.3,243.14-10.36,24.11-19.59,48.72-29.16,73.17-2.86,7.3-4.92,13,7.67,13.8,44.08,2.81,61.24,41.81,60.47,73.46-.9,36.77-2.37,73.6-1.28,110.34,1.56,52.49-.49,105.56,11.05,157.08,8.32,37.15,26,72.44,68.4,77.68,63.09,7.8,145.13-12.87,157.22-107.69,10.46-82.08,23.9-163.79,29.25-246.46,1.78-27.55,10.96-50.18,38.11-61.36,9.88-4.07,7.03-8.02,2.57-14.28-41.26-57.91-71.83-121.73-100.84-186.24-14.05-31.23-23.71-64.17-24.43-98.88-.98-47.77,22.79-78.15,68.79-90.1,16.87-4.38,33.93-4.79,50.88-3.51,16.9,1.28,20.8-2.73,13.03-18.76-40.09-82.69-96.14-147.98-183.42-185.12-57.11-24.3-114.43-31.26-174.45-20.83-42.24,7.34-77.07,29.01-104.56,61.67-46.83,55.63-63.15,122.5-71.34,197.42ZM275.08,79.92c-17.69,1.16-35.54,1.23-53.05,3.68-70.45,9.86-120.51,45.78-143.36,115.13-14,42.5-18.54,86.56-13.04,130.49,15.31,122.38,45.8,241.17,91.37,355.85,14.76,37.14,31.88,73.41,58.41,104.08,27.86,32.2,50.44,32.51,78.77,1.51,2.66-2.91,4.9-6.2,7.61-9.05,25.51-26.86,44.95-59.06,73.3-83.42,7.32-6.29,8.11-11.27.37-18.94-24.1-23.89-40.08-53.08-46.94-86.1-5.09-24.46-4.52-49.41,0-74.58,7.49-41.65,3.48-83.85,2.7-125.91-1.87-99.7,16.54-193.7,82.82-272.67,9.03-10.76,5.02-13.64-5.18-16.44-43.81-12.04-88.05-21.58-133.78-23.61ZM744,72.82c-.08,7.24,5.09,7.02,8.15,8.63,61.04,32.04,109.66,77.05,146.73,135.47,34.86,54.94,56.2,111.83,40.6,178.2-8.99,38.25-6.18,77.06-.74,115.68,7.28,51.64,6.99,102.3-20.26,149.31-1.44,2.49-.18,5.02,3.03,6.31,4.48-.66,5.2-5.08,7.08-8.14,57.58-94.29,100.59-194.68,126.43-302.26,7.38-30.73,10.59-62.12,15.7-93.2,10.89-66.2-21.07-110.69-71.06-145.64-78.07-54.59-165.13-59.99-255.67-44.37ZM537.74,493.81c.14-36.57-4.81-69.66-12.34-102.35-7.35-31.91-24.66-44.95-57.65-44.69-30.42.24-57.41,11.66-84.21,24.72-15.08,7.34-20.73,16.72-18.67,33.89,3.69,30.68,2.52,61.6.24,92.48-1.68,22.81-6.52,45.23-5.73,68.39,1.92,56.35,51.02,115.02,105.28,123.6,12.16,1.92,17.72-.67,21.09-12.79,6.87-24.67,16.67-48.35,27.48-71.6,16.88-36.3,25.45-74.41,24.5-111.65ZM800.58,402.06c.36,19.9,4.88,38.95,11.32,57.67,18.44,53.65,45.65,103.08,73.42,152.22,2.37,4.2,2.27,11.7,9.23,11.07,7.74-.69,7.23-8.72,8.6-13.84,7.26-27.05,6.68-54.59,3.45-82.12-4.06-34.56-9.07-69.09-5.39-103.99,2.33-22.17,5.33-44.28,8.63-66.33,1.51-10.13-1.94-14.26-12.08-15.26-16.48-1.61-32.78-1.21-49,1.82-33.62,6.27-48.42,24.4-48.16,58.75ZM384.48,815.5c53.26,28.22,122.61,14.47,158.42-30.61,5.71-7.19,12.03-14.37,9.4-24.71-3.22-12.65-9.01-23.55-22.54-27.6-13.21-3.96-20.1,6.53-25.14,14.69-23.38,37.92-58.97,54.39-100.94,60.94-6.4,1-13.14,1.53-19.21,7.29ZM1058.89,739.42c-3.74-.47-5.08-.94-6.31-.75-44.77,6.95-89.13,13.75-132.17-9.72-12.8-6.98-31.37,10.36-35.4,28.45-4.5,20.2,7.58,23.3,22.87,24.4,34.33,2.47,68.05-.83,100.68-11.82,18.36-6.19,35.83-14.52,50.34-30.56Z"/>
  <path class="cls-1" d="M365.79,342.42c8.19-74.92,24.51-141.79,71.34-197.42,27.49-32.66,62.32-54.33,104.56-61.67,60.02-10.43,117.34-3.47,174.45,20.83,87.28,37.14,143.33,102.43,183.42,185.12,7.77,16.03,3.88,20.04-13.03,18.76-16.95-1.28-34.01-.87-50.88,3.51-46,11.94-69.78,42.33-68.79,90.1.71,34.71,10.38,67.65,24.43,98.88,29.01,64.51,59.58,128.32,100.84,186.24,4.46,6.26,7.31,10.21-2.57,14.28-27.15,11.18-36.33,33.82-38.11,61.36-5.35,82.67-18.79,164.38-29.25,246.46-12.08,94.83-94.12,115.49-157.22,107.69-42.4-5.24-60.07-40.52-68.4-77.68-11.54-51.52-9.49-104.59-11.05-157.08-1.09-36.74.38-73.56,1.28-110.34.77-31.65-16.39-70.65-60.47-73.46-12.59-.8-10.52-6.5-7.67-13.8,9.57-24.45,18.79-49.05,29.16-73.17,34.55-80.39,28.66-162.04,5.3-243.14-12.09-41.98-52.15-61.05-101.65-54.32-28.79,3.92-55.89,13.38-85.69,28.85Z"/>
  <path class="cls-1" d="M275.08,79.92c45.73,2.03,89.96,11.57,133.78,23.61,10.2,2.8,14.2,5.69,5.18,16.44-66.28,78.97-84.69,172.98-82.82,272.67.79,42.06,4.8,84.26-2.7,125.91-4.53,25.17-5.09,50.12,0,74.58,6.86,33.01,22.84,62.21,46.94,86.1,7.74,7.67,6.95,12.65-.37,18.94-28.34,24.36-47.79,56.56-73.3,83.42-2.71,2.85-4.95,6.15-7.61,9.05-28.33,31-50.91,30.69-78.77-1.51-26.54-30.67-43.65-66.94-58.41-104.08-45.57-114.67-76.06-233.47-91.37-355.85-5.49-43.93-.96-87.99,13.04-130.49,22.85-69.36,72.91-105.27,143.36-115.13,17.51-2.45,35.36-2.52,53.05-3.68Z"/>
  <path class="cls-1" d="M744,72.82c90.54-15.62,177.59-10.21,255.67,44.37,49.99,34.95,81.95,79.44,71.06,145.64-5.12,31.08-8.32,62.47-15.7,93.2-25.85,107.58-68.86,207.97-126.43,302.26-1.87,3.07-2.6,7.49-7.08,8.14-3.21-1.29-4.47-3.83-3.03-6.31,27.26-47.01,27.55-97.67,20.26-149.31-5.45-38.63-8.26-77.44.74-115.68,15.6-66.37-5.74-123.26-40.6-178.2-37.07-58.42-85.69-103.43-146.73-135.47-3.07-1.61-8.23-1.39-8.15-8.63Z"/>
  <path class="cls-1" d="M537.74,493.81c.95,37.24-7.62,75.35-24.5,111.65-10.81,23.24-20.61,46.93-27.48,71.6-3.38,12.12-8.94,14.72-21.09,12.79-54.26-8.58-103.35-67.25-105.28-123.6-.79-23.16,4.05-45.58,5.73-68.39,2.27-30.89,3.45-61.8-.24-92.48-2.07-17.17,3.59-26.54,18.67-33.89,26.8-13.05,53.79-24.48,84.21-24.72,32.99-.26,50.31,12.77,57.65,44.69,7.53,32.68,12.47,65.78,12.34,102.35ZM475.77,363.75c-9.66.82-21.52-.69-25.05,10.58-3.66,11.67,5.48,19.18,14.39,25.14,6.1,4.08,13.13,5.94,20.44,4.67,11.41-1.98,22.66-6.37,24.27-19.02,1.77-13.88-10.92-15.66-20.7-18.69-4.32-1.34-8.9-1.82-13.35-2.68Z"/>
  <path class="cls-1" d="M800.56,402.07c-.24-34.35,14.55-52.49,48.18-58.75,16.22-3.02,32.52-3.43,49-1.82,10.14.99,13.59,5.13,12.08,15.26-3.29,22.05-6.29,44.16-8.63,66.33-3.67,34.9,1.33,69.43,5.39,103.99,3.24,27.54,3.81,55.08-3.45,82.12-1.37,5.12-.86,13.14-8.6,13.84-6.95.62-6.86-6.88-9.23-11.07-27.77-49.14-54.97-98.57-73.42-152.22-6.43-18.72-10.95-37.78-11.33-57.67ZM849.54,390.79c15.49-.36,33.86-15.38,30.49-24.58-4.95-13.5-17.81-10-28.55-9.94-1.92,0-3.98.38-5.73,1.14-8.4,3.67-22.38,3.3-20,16.7,2.19,12.33,14.2,15.68,23.79,16.68Z"/>
  <path class="cls-1" d="M384.48,815.5c6.07-5.76,12.81-6.29,19.21-7.29,41.97-6.55,77.56-23.02,100.94-60.94,5.03-8.17,11.93-18.65,25.14-14.69,13.53,4.05,19.32,14.95,22.54,27.6,2.63,10.34-3.69,17.53-9.4,24.71-35.81,45.08-105.16,58.83-158.42,30.61Z"/>
  <path class="cls-1" d="M1058.89,739.42c-14.51,16.04-31.98,24.37-50.34,30.56-32.63,11-66.35,14.3-100.68,11.82-15.29-1.1-27.37-4.2-22.87-24.4,4.03-18.09,22.6-35.43,35.4-28.45,43.04,23.47,87.4,16.67,132.17,9.72,1.24-.19,2.57.28,6.31.75Z"/>
  <path class="cls-3" d="M475.77,363.75c4.45.87,9.04,1.35,13.35,2.68,9.78,3.03,22.47,4.81,20.7,18.69-1.61,12.64-12.86,17.03-24.27,19.02-7.31,1.27-14.34-.59-20.44-4.67-8.91-5.96-18.05-13.48-14.39-25.14,3.53-11.27,15.38-9.76,25.05-10.58Z"/>
  <path class="cls-3" d="M849.54,390.79c-9.59-1-21.6-4.35-23.79-16.68-2.38-13.4,11.6-13.03,20-16.7,1.75-.76,3.81-1.13,5.73-1.14,10.74-.05,23.6-3.56,28.55,9.94,3.37,9.2-15,24.22-30.49,24.58Z"/>
</svg>