<?xml version="1.0" encoding="UTF-8"?>
<svg id="Layer_1" data-name="Layer 1" xmlns="http://www.w3.org/2000/svg" viewBox="0 0 141.56 143.25">
  <defs>
    <style>
      .cls-1 {
        fill: #fedf5d;
      }

      .cls-1, .cls-2 {
        stroke-width: 0px;
      }

      .cls-2 {
        fill: #3f7cac;
      }
    </style>
  </defs>
  <path class="cls-2" d="M77.25,0c2.19.62,4.47.56,6.7.82,5.61.63,10.89,2.03,15.19,5.96,3.69,3.37,5.72,7.54,5.74,12.57.03,10.72.05,21.44,0,32.16-.04,10.02-7.65,17.56-17.66,17.57-11.18,0-22.37,0-33.55,0-4.89,0-9.34,1.44-13.13,4.48-5.36,4.3-8.1,10.01-8.24,16.88-.1,4.7-.05,9.41.01,14.12.02,1.13-.33,1.41-1.42,1.39-3.07-.07-6.15-.09-9.23-.01-8.18.2-13.67-3.76-17.07-10.97-1.94-4.13-2.75-8.58-3.59-13.01C-.97,71.31.02,60.86,3.44,50.68c2.87-8.54,10.39-13.97,19.4-14.06,15.33-.15,30.66-.08,46-.1,2.21,0,1.9.16,1.91-1.97.01-2.38,0-2.38-2.44-2.38-10.07,0-20.13-.03-30.2.02-1.25,0-1.55-.33-1.53-1.55.09-4.61-.02-9.23.11-13.84.21-7.43,3.32-11.45,10.41-13.77,4.93-1.62,10.04-2.18,15.16-2.73.43-.05.95.19,1.28-.3h13.7ZM51.53,23.5c3.54-.02,6.44-3.01,6.39-6.6-.05-3.56-2.99-6.55-6.55-6.43-3.83.13-6.31,2.61-6.29,6.61.02,4.16,3.35,6.4,6.45,6.42Z"/>
  <path class="cls-1" d="M97.24,105.94c-8.3,0-16.59.02-24.89-.02-1.17,0-1.65.2-1.6,1.51.09,2.77.02,2.77,2.81,2.77,9.98,0,19.95.01,29.93-.04,1.18,0,1.49.34,1.46,1.49-.07,3.4-.12,6.81,0,10.21.24,6.99-3.01,11.9-8.88,15.31-4.91,2.85-10.32,4.2-15.83,5.2-10.19,1.85-20.13.71-29.77-2.84-4.96-1.83-9.41-4.54-12.13-9.37-1.02-1.81-1.67-3.75-1.67-5.84,0-11.65-.08-23.31.05-34.96.09-7.49,6.91-14.8,14.38-15.79,1.3-.17,2.59-.25,3.9-.25,10.81,0,21.63-.09,32.44.03,9.18.1,17.52-6.16,20.49-14.77.79-2.29,1.24-4.66,1.22-7.11-.04-4.52.02-9.04-.03-13.56-.01-1.06.3-1.34,1.34-1.33,4.05.06,8.11-.02,12.17.05,6.04.1,10.14,3.15,13,8.37,2.37,4.3,3.26,8.99,4.37,13.66.83,3.5,1.02,7.03,1.36,10.58.61,6.31-.23,12.37-2.12,18.39-1.22,3.88-2.55,7.67-4.64,11.17-2.88,4.82-7.18,7.15-12.75,7.17-8.2.02-16.41,0-24.61,0v-.02ZM96.27,125.34c-.01-3.55-2.86-6.44-6.34-6.44-3.51,0-6.48,3.02-6.44,6.55.04,3.46,2.96,6.42,6.41,6.48,3.48.05,6.38-2.95,6.37-6.58Z"/>
</svg>