<?xml version="1.0" encoding="UTF-8"?>
<svg id="Layer_1" data-name="Layer 1" xmlns="http://www.w3.org/2000/svg" viewBox="0 0 1266.3 1266.3">
  <defs>
    <style>
      .cls-1 {
        fill: #222;
      }

      .cls-1, .cls-2 {
        stroke-width: 0px;
      }

      .cls-2 {
        fill: #0cd2f1;
      }
    </style>
  </defs>
  <circle class="cls-1" cx="633.15" cy="633.15" r="633.15"/>
  <g>
    <path class="cls-2" d="M378.49,876.67c-.53-30.86,3.38-58.24,10.21-84.77,3.92-15.24-.83-19.71-13.89-23.8-40.32-12.64-78.38-30.02-111.08-57.55-17.63-14.84-33.09-31.45-41.14-53.5-14.89-40.82,6.52-69.72,33.92-94.93,33.79-31.1,75.35-49.24,118.81-61.9,16.56-4.82,16.53-12.01,13.46-25.53-10.08-44.28-15.03-88.9-5.2-134.09,2.9-13.31,7.35-25.91,13.94-37.69,16.31-29.18,42.21-40.09,74.49-37.34,42.34,3.6,77.45,24.59,111.15,48.08,13.97,9.74,27.07,20.92,39.56,32.52,8.1,7.52,13.04,7.97,21.62-.05,34.27-32.03,71.92-59.41,116.93-74.59,34.16-11.52,67.66-13.23,95.34,15.4,14.82,15.32,22.28,35.06,26.09,55.5,7.99,42.88,5.57,85.74-3.56,128.29-.76,3.55-.97,7.24-2,10.69-3.18,10.73.73,15.22,11.62,18.43,40.45,11.91,78.59,29.01,112.2,55.08,19.57,15.17,36.63,32.65,44.15,56.77,9.05,29.01-.37,54.28-19.68,76.15-35.89,40.63-83.31,62.46-133.54,78.68-12.94,4.18-15.23,8.57-12.51,21.73,9.06,43.82,13.41,87.75,4.95,132.76-12.79,68.06-60.4,96.91-125.53,73.59-42.72-15.3-79.08-40.78-111.64-71.59-10.1-9.56-15.62-8.43-25.1.26-38.59,35.39-81.07,64.58-133.36,76.18-52.43,11.63-93.07-14.71-104.08-67.33-4.04-19.31-7.87-38.69-6.15-55.45ZM627.8,766.69c0-.48,0-.97,0-1.45,22.31,0,44.62-.33,66.91.14,10.63.22,16.71-4.42,22.49-13.09,24.35-36.53,44.93-75.09,64.47-114.31,2.86-5.75,1.08-9.67-1.37-14.37-20.05-38.53-41.53-76.21-65.49-112.48-4.18-6.33-8.86-8.91-16.35-9.44-43.06-3.04-86.08-3.05-129.15-.14-8.7.59-14.2,3.8-18.82,11.08-22.45,35.38-43.72,71.4-62.76,108.77-4.57,8.98-4.41,16.18.39,24.67,16.04,28.37,32.39,56.62,47.2,85.63,13.43,26.3,32.6,39.54,62.9,35.2,9.67-1.38,19.7-.22,29.57-.22ZM253.5,631.96c.65,17.03,9.7,29.24,20.37,39.83,33.18,32.9,74.66,51.06,118.45,64.93,7.05,2.23,9.78.49,12.15-6.67,10.09-30.42,21.57-60.33,34.9-89.51,2.07-4.52,2.58-9.01.51-13.48-13.51-29.13-24.95-59.07-34.96-89.56-2-6.08-5.11-8.47-11.38-6.5-40.66,12.78-79.87,28.74-112.8,56.52-13.81,11.65-25.94,25.47-27.24,44.43ZM414.75,393.37c-.8,27.71,3.68,54.78,10.03,81.58,1.13,4.75.44,11.36,10.31,9.03,31.33-7.41,63.31-11.34,95.26-15.08,5.85-.69,9.44-3.03,12.63-7.45,18.19-25.18,37.45-49.52,58.41-72.46,5.31-5.81,5.5-9.7-.56-15.28-15.66-14.39-32.22-27.67-49.86-39.37-22.96-15.22-47.33-28.06-74.87-32.98-26.34-4.7-41.25,3.95-51.91,27.92-9.16,20.59-9.14,42.34-9.44,64.09ZM470.22,966.42c1.95-.28,8.22-.61,14.17-2.15,47-12.15,84.32-40.24,119.58-72.05,7.63-6.88,1.21-9.89-1.88-13.42-20.11-22.92-39.5-46.41-57.05-71.35-4.49-6.38-9.89-8.99-17.95-9.77-23.19-2.25-46.41-5-69.31-9.19-31.34-5.74-31.22-6.38-37.56,25.46-.71,3.56-1.82,7.06-2.22,10.65-3.94,35.59-7.19,71.17,3.66,106.27,7.76,25.09,20.71,35.55,48.56,35.57ZM852.09,392.8c1.2-15.33-1.86-33.74-6.34-51.85-8.95-36.22-32.25-48.61-67.69-37.54-43.58,13.61-78.54,40.48-111.79,70.37-6.09,5.48-6.07,9.39-.72,15.14,21.51,23.07,40.77,47.98,59.12,73.59,3.45,4.81,7.66,5.76,13.05,6.57,31.23,4.66,62.47,9.32,93.5,15.12,7.33,1.37,8.79-.4,10.19-6.49,6.18-26.8,10.65-53.79,10.67-84.88ZM852.72,865.24c1.74-22.23-3.72-46.59-7.81-71.11-1.37-8.23-3.81-12.64-14.24-10.44-30.93,6.52-62.23,11.18-93.74,14.1-5.07.47-8.58,2.23-11.57,6.38-18.73,26.03-37.94,51.69-59.46,75.55-2.8,3.1-6.81,6.71-1.3,11.73,35.8,32.63,73.41,62.72,121.85,73.97,31.49,7.31,51.42-7.17,59.86-38.85,5.13-19.25,7.16-38.64,6.41-61.32ZM1013.66,634c-2.66-23.41-17.8-38.41-34.66-51.47-31.07-24.06-67.2-38.17-104.09-50.62-9.38-3.17-12.03,2.16-14.15,9.02-8.88,28.68-20.14,56.42-32.78,83.62-2.79,6-2.34,11.77.64,17.76,13.57,27.35,24.78,55.72,34.26,84.68,3.21,9.8,7.53,10.24,15.73,7.5,44.09-14.73,84.86-35.2,118.37-68.11,9.04-8.88,14.29-20.12,16.68-32.39ZM804.85,674.4c-16.95,29.52-32,55.71-48.56,84.56,25.36-1.98,47.14-5.76,68.78-10.69,7.19-1.64,5.44-6.21,3.72-10.76-7.48-19.8-15.01-39.58-23.94-63.12ZM680.7,802.21c-29.36,0-56.25.25-83.13-.12-10.54-.15-10.62,3.92-5.11,10.48,12.48,14.84,25.26,29.43,37.99,44.05,3.99,4.58,6.69,2.14,9.79-1.6,13.65-16.51,28.51-32.08,40.46-52.8ZM511.73,760.62c-17.37-29.7-32.48-55.54-48.74-83.33-9.93,22.14-17.46,42.35-24.01,62.97-1.49,4.67-1.97,7.68,3.95,9.09,21.55,5.14,43.38,8.1,68.8,11.27ZM509.64,508.7c-23.62.44-44.59,6.19-65.87,9.58-5.86.93-5.75,4.67-4.36,9.28,6.2,20.6,13.29,40.82,23.99,61.99,15.84-27.7,30.59-53.48,46.24-80.85ZM679.94,463.94c-12.34-20.55-27.93-36.14-42.12-52.8-2.33-2.73-5.47-3.02-8.04-.13-14.84,16.67-30.46,32.73-43.02,52.93h93.19ZM756.95,508.6c14.79,26.26,28.45,50.91,42.56,75.31,3.37,5.83,6.59,3.08,8.38-1.79,6.58-17.89,13.14-35.8,19.56-53.75,1.41-3.94,2.67-8.58-3.54-9.58-21.65-3.47-42.96-9.49-66.95-10.18Z"/>
    <path class="cls-2" d="M632.52,558.43c40.93-.44,74.9,33.14,75.46,74.61.54,39.62-34.03,73.57-74.86,73.5-40.39-.07-73.8-32.59-74.05-72.06-.27-42.23,31.96-75.6,73.45-76.05Z"/>
  </g>
</svg>