<?xml version="1.0" encoding="UTF-8"?>
<svg id="Layer_1" data-name="Layer 1" xmlns="http://www.w3.org/2000/svg" viewBox="0 0 943.66 943.66">
  <defs>
    <style>
      .cls-1 {
        fill: #fefefe;
      }

      .cls-1, .cls-2 {
        stroke-width: 0px;
      }

      .cls-2 {
        fill: #fe463a;
      }
    </style>
  </defs>
  <circle class="cls-2" cx="471.83" cy="471.83" r="471.83"/>
  <path class="cls-1" d="M755.25,492.07c-7.26-3.19-15.13-3.39-21.59,3.26-7.79,8.01-16.03,15.6-23.72,23.71-43.73,46.15-96.76,69.83-160.82,65.28-53.68-3.81-90.33-41.32-91.39-94,19.94,25.51,44.97,39.94,75.63,42.99,87.43,8.68,152.77-32.04,186.12-115.36,14.13-35.31,1.92-81.08-24.72-108.55-36.79-37.93-82.71-52.81-132.93-57.1-97.57-8.34-190.05,12.29-279.14,51.38-40.34,17.7-44.64,24.27-31.05,66.34,5.09,15.76,13.78,30.4,21.3,45.32,4.85,9.61,12.04,10.1,21.25,4.99,24.63-13.67,49.23-27.5,74.54-39.84,22.41-10.92,44.82-22.68,69.91-25.63,1.75,5.67-.76,8.44-3.42,10.72-26.58,22.78-51.76,47.1-77.76,70.47-58.26,52.36-117.47,103.63-171.88,160.13-4.89,5.07-7.43,9.24-4.24,13.95,14.07,20.74,18.25,46.24,35.89,65.84,18.08,20.08,26.98,23.69,46.05,5.07,28.05-27.39,54.3-56.76,83.65-82.64,14.97-13.2,23.07-33.63,44.57-41.9.58,4.83.88,8.83,1.55,12.76,7.38,43.69,28.97,78.02,67.37,100.98,34.73,20.76,72.6,21.67,111.23,16.61,96.47-12.63,169.58-94.99,191.17-174.82,2.25-8.33.89-16.25-7.54-19.96ZM506.52,415.34c11.91-16.43,23.98-32.74,35.71-49.29,17.92-25.27,42.91-28.12,66.68-7.64,34.88,30.05,20.97,62.45-13.47,81.52-17.77,9.84-37.22,13.1-57.36,12.61-4.26,0-8.62.59-12.76-.11-13.06-2.19-30.84-.36-36.83-11.4-5.08-9.35,11.64-16.88,18.04-25.7Z"/>
</svg>