<?xml version="1.0" encoding="UTF-8"?>
<svg id="Layer_1" data-name="Layer 1" xmlns="http://www.w3.org/2000/svg" viewBox="0 0 1013.52 1013.52">
  <defs>
    <style>
      .cls-1 {
        fill: #281c1c;
      }

      .cls-1, .cls-2, .cls-3 {
        stroke-width: 0px;
      }

      .cls-2 {
        fill: #281c1d;
      }

      .cls-3 {
        fill: #cd422b;
      }
    </style>
  </defs>
  <rect class="cls-3" width="1013.52" height="1013.52"/>
  <path class="cls-1" d="M522.32,102.11c34.9,0,69.8.2,104.7-.15,8.94-.09,10.45,2.6,8.57,11.14-11.9,54.1-23.25,108.32-34.8,162.5-.76,3.57-1.62,7.12-2.49,10.66q-4.6,18.61-24.28,18.59c-38.22-.02-76.45-.32-114.67.21-9.13.13-11.92-3.57-13.6-11.6-12.61-60.41-25.39-120.78-38.59-181.07-1.87-8.56.64-10.42,8.47-10.37,35.56.21,71.13.09,106.69.09Z"/>
  <path class="cls-1" d="M100.82,521.26c0-33.88-.02-67.77.01-101.65.01-13.11.14-13.52,12.47-10.99,41.88,8.61,83.7,17.53,125.54,26.37,18.49,3.9,36.93,8.06,55.46,11.73,6.99,1.38,9.81,4.41,9.75,11.98-.37,41.85-.36,83.71-.1,125.57.05,7.33-2.32,10.53-9.64,12.06-61.03,12.78-122.01,25.82-182.94,39.05-7.94,1.72-10.75-.08-10.68-8.48.31-35.21.13-70.43.13-105.64Z"/>
  <path class="cls-1" d="M856.05,693.64c-1.88,2.18-3.27,4.01-4.88,5.62-50.75,50.59-101.54,101.14-152.24,151.79-4.24,4.24-6.95,4.73-10.57-.87-34.74-53.8-69.63-107.5-104.66-161.12-2.81-4.3-2.2-6.94,1.16-10.27,31.07-30.84,62.08-61.74,93.02-92.72,4.04-4.04,7.74-3.91,12.32-.94,53.46,34.65,107,69.2,160.48,103.82,1.85,1.2,3.36,2.9,5.38,4.68Z"/>
  <path class="cls-1" d="M405.49,521.57c0,20.91-.23,41.83.14,62.73.12,7.07-1.64,10.24-9.38,10.05-18.25-.45-36.51-.36-54.76-.09-6.5.1-8.84-2.48-8.81-8.76.18-42.81.25-85.62.21-128.43,0-5.7,1.72-8.47,7.97-8.39,18.92.26,37.84.28,56.76,0,6.16-.09,8.03,2.25,7.96,8.17-.24,21.57-.09,43.15-.09,64.72Z"/>
  <path class="cls-1" d="M660.77,559.7c0,3.74-2.48,5.26-4.29,7.06-29.98,29.91-60.12,59.66-89.94,89.74-5.16,5.21-8.5,5.57-13.7.13-12.82-13.41-26.05-26.44-39.41-39.32-4.11-3.96-4.06-6.55-.07-10.5,31.04-30.74,61.93-61.63,92.81-92.52,3.04-3.05,6.13-4.16,9.43-.89,14.57,14.43,29.05,28.94,43.52,43.47.87.88,1.3,2.2,1.65,2.83Z"/>
  <path class="cls-1" d="M594.41,404.2c-3.27.4-6.54,1.16-9.81,1.16-41.82.08-83.64-.1-125.47.19-7.65.05-10.59-2.11-10.37-10.13.5-17.91.23-35.84.09-53.77-.04-5.34.8-8.73,7.5-8.69,45.8.32,91.6.34,137.4.46,1.13,1.66,2.23,3.47,2.18,5.45-.55,21.77,1.87,43.61-1.52,65.31Z"/>
  <path class="cls-2" d="M556.51,506.96c-1.52,1.98-2.55,3.71-3.93,5.08-13.61,13.53-27.39,26.88-40.84,40.57-4.2,4.27-7.14,4.43-11.39.04-13.11-13.54-26.42-26.9-39.97-39.99-4.36-4.21-4.56-7.17-.21-11.41,13.75-13.4,27.31-27.01,40.8-40.67,3.41-3.46,5.98-4.21,9.81-.3,13.87,14.18,28.06,28.05,42.08,42.08,1.34,1.34,2.38,2.98,3.65,4.6Z"/>
</svg>