<?xml version="1.0" encoding="UTF-8"?>
<svg id="Layer_1" data-name="Layer 1" xmlns="http://www.w3.org/2000/svg" viewBox="0 0 1174.96 882.81">
  <defs>
    <style>
      .cls-1 {
        fill: #cc6798;
        stroke-width: 0px;
      }
    </style>
  </defs>
  <path class="cls-1" d="M1158.26,577.19c-31.49-47.45-77.96-66.4-132.6-69.26-39.08-2.05-76.83,4.11-112.64,20.54-3.8,1.75-7.4,3.73-10.37-1.97-12.43-23.81-23.48-47.78-23.98-75.59-.39-21.56,6.07-41.32,12.25-61.36,3.89-12.6,1.72-16.5-11.05-19.6-14.04-3.41-28.03-1.62-42.06.67-11.88,1.94-18.54,7.74-21.24,20.1-12.41,56.69-45.29,103.82-72.83,153.43-2.71,4.88-5.32,6.68-8.27.24-5.07-11.07-10.17-21.96-12.76-34.15-6.36-29.98-.87-58.27,9.42-86.29,4.05-11.02,1.13-16.25-10.42-19.03-17.96-4.32-35.54-1.74-52.94,3.64-5.6,1.73-7.66,5.65-9,10.71-2.64,9.94-4.47,20.27-8.43,29.68-30.32,72.15-61.82,143.8-96.07,214.18-3.93,8.07-6.65,17.49-15.89,24.33-1.18-12.88-.83-24.17,1.4-35.45,7.32-37.07,17.71-73.37,27.31-109.88,4.49-17.1-10.3-31.35-27.22-26.48-3.36.97-6.45,2.83-10.04,4.45.62-8.18,1.7-15.38,1.55-22.54-.15-7.21-.78-14.57-2.51-21.55-4.88-19.69-19.7-30.77-38.28-28.94-7.56.74-15.05,2.11-22.24,5.02-30.98,12.52-55.23,33.59-75.85,59.29-2.9,3.61-5.72,6.91-9.94,9.21-34.9,18.97-69.77,37.99-104.43,57.37-5.01,2.8-7.88,2.47-11.68-1.57-12.59-13.38-26.57-25.24-40.83-36.83-32.3-26.24-66.85-49.73-96.2-79.56-51.72-52.56-54.81-109.31-16.13-170.38,12.58-19.86,28.09-37.32,45.73-52.65,80.52-69.95,172.33-119.56,274.86-148.54,55.95-15.81,112.89-22.49,170.79-9.22,64.15,14.7,87.15,60.34,60.64,120.58-14.98,34.03-38.21,61.52-66.32,85.11-51.02,42.83-110.39,67.52-175.69,78.09-35.37,5.73-70.7,6.37-104.79-8.03-13.63-5.76-25.45-13.69-35.32-24.73-2.38-2.66-5.38-5.97-9.86-3.94-5.2,2.36-3.87,7.13-3.15,11.03,1.18,6.4,3.7,12.39,7.67,17.72,7.84,10.55,17.36,19.23,28.17,26.66,28.3,19.47,60.61,24.6,93.76,25.05,50.1.67,98.92-8,145.88-25.28,87.35-32.15,151.59-89.07,183.47-178.09,14.62-40.83,16.14-82.68-5.92-121.89-20.31-36.11-54.49-54.72-92.66-66.45-64.85-19.94-130.75-19.11-195.71-3.08-127.01,31.34-241.02,89.14-338.74,176.81-37.85,33.96-68.66,73.84-87.45,121.89-14.14,36.15-13.08,71.4,5.6,105.96,17.02,31.49,41.09,56.85,67.77,80.04,37.3,32.43,79.15,58.67,119.19,87.39,9.14,6.56,18.47,12.96,26.66,21.77-8.26,4.33-15.72,8.15-23.1,12.11-45.6,24.44-89.65,51.23-126.33,88.3-30.9,31.24-47.5,68.39-39.95,113.03,4.2,24.86,14.47,47.43,40.58,56.68,21.17,7.5,43.61,8.37,65.68,4.93,115.99-18.1,187.59-130.75,158.12-246.84-1.93-7.6-9.8-15.66-5.74-22.09,4.04-6.4,13.33-9.76,20.71-13.7,13.13-7.02,25.41-15.79,40.94-21.59-8.28,25.72-12.26,50.43-13.69,75.63-2.11,37.3,5.78,72.2,26.21,103.55,16.5,25.33,48.22,26.82,68.27,4.28,5.91-6.65,9.91-14.45,14.04-22.21,11.22-21.13,20.58-43.15,31.04-64.77.4,3.54-.24,6.79-.44,10.07-1.19,19.89-2.04,39.87,6.89,58.44,8.72,18.13,26.5,22.44,43.1,11.05,9.29-6.37,16.76-14.68,22.6-24.1,26.79-43.21,49.93-88.4,71.13-134.57,13.14-28.61,25.37-57.64,38.54-87.68,1.12,3.63,2.06,6.08,2.62,8.62,4.46,20.13,7.21,41.64,18.79,58.52,17.17,25.02,9.6,42.8-8.73,62.36-19.56,20.86-37.01,43.73-54.84,66.15-6.65,8.36-12.81,17.89-6.58,29.35,5.86,10.78,16.53,10.96,27,11.15,28.02.51,53.36-8.69,77.11-22.42,23.48-13.57,40.29-32.94,45.19-60.37,3.72-20.79.4-41.19-7.74-60.56-3.3-7.87-2.72-13.87,2.18-21.06,19.13-28.11,36.41-57.36,52.36-87.42,3.22-6.07,4.94-13.24,11.25-19.01,6.1,30.41,14.14,58.96,29.04,85.1,2.82,4.94-.24,7.57-3.62,10.52-11.83,10.33-22.71,21.61-32.14,34.18-16.96,22.59-31.47,46.24-29.9,76.1.97,18.37,15.71,30.04,33.72,26.31,27.07-5.59,50.88-17.75,72-35.71,30.64-26.07,39.66-57.88,25.92-95.55-3.43-9.42-.57-12.19,7.97-14.81,51.02-15.66,101.66-14.35,151.75,3.32,22.85,8.06,42.06,22.02,55.31,42.65,14.82,23.06,19.58,47.09,3.33,71.86-6.22,9.48-14.74,16.38-24.14,22.46-3.42,2.21-8.44,4.72-6.4,9.54,2.29,5.42,7.96,3.29,12.09,2.19,6.65-1.78,12.59-5.34,18.38-9.09,19.32-12.52,29.49-31.16,35.58-52.59v-27.53c-4.2-14.98-7.91-30.13-16.7-43.37ZM226.69,775.26c-19.69,23.16-43.33,40.68-73.8,47.17-4.43.95-9.03,1.53-13.56,1.58-21.84.24-32.59-12.57-30.1-34.59,2.72-24.03,12.7-45,28.49-62.53,33.31-36.99,75.22-62.75,118.6-88.4,13.27,51.58,4.2,96.97-29.63,136.76ZM500.64,506.02c-1.35,19.62-8.34,37.96-14.6,56.23-13.32,38.92-27.46,77.59-44.97,114.89-3.22,6.86-7.06,13.57-11.52,19.69-6.66,9.16-13.16,8.06-17.14-2.77-4.64-12.64-6.28-25.86-6.05-39.33.7-51.95,19.17-97.5,50.59-138.11,7.49-9.69,17.29-17.4,29.12-21.55,10.64-3.74,15.33-.13,14.57,10.94ZM661.97,705.67c20.4-23.02,39.66-43.3,57.17-67.17,1.14,25.95-28.33,61.18-57.17,67.17ZM838.7,663.82c-8.66,3.64-9.4-.41-7.86-6.8,3.9-16.1,10.62-31.05,20.07-44.66,6.7-9.65,14.02-18.83,24.43-27.11,10.41,33.53-5.3,65.41-36.64,78.57Z"/>
</svg>