<?xml version="1.0" encoding="UTF-8"?>
<svg id="Layer_1" data-name="Layer 1" xmlns="http://www.w3.org/2000/svg" viewBox="0 0 840.33 1038.64">
  <defs>
    <style>
      .cls-1 {
        fill: #3799d9;
        stroke-width: 0px;
      }
    </style>
  </defs>
  <path class="cls-1" d="M568.16,11.96c70.14,11.8,138.4,29.31,199.36,67.89,28.83,18.25,52.96,41.12,65.2,74.16,11.13,30.04,6.72,61.34,6.89,92.2.29,51.19.08,102.38.06,153.57-.02,48.61-.08,97.23-.12,145.84-.04,50.16-.15,100.32-.08,150.49.07,50.69,1.06,101.38.28,152.05-.7,45.23-25.46,77.66-60.44,102.92-49.97,36.09-107.43,54.47-166.77,67.52-96.22,21.17-193.64,24.39-291.29,15.15-73.64-6.97-146.04-21.66-213.33-54.08-37.42-18.03-72.31-40.1-94-77.84C5.2,886.67,0,870.91,0,853.3c.07-222.54-.05-445.09.14-667.63.04-41.14,24.15-69.26,53.95-93.19,44.52-35.75,97.37-53.45,151.63-67.49,15.47-4,31.11-7.34,46.85-10.14s31.67-5.08,47.59-6.96c16.12-1.91,32.31-3.2,48.48-4.59l5.38-.46c.69-.06,1.45-.15,1.93-.65.48-.5.57-1.32,1.11-1.74.4-.31.96-.33,1.47-.34,16.14-.2,32.3-.03,48.44-.03h34.13c42.31,4.34,84.92,5.53,127.04,11.89ZM422.87,302.59c79.27-.82,160.24-8.96,238.27-35.91,31.29-10.81,61.88-23.67,86.34-47.17,23.03-22.11,23.22-38.9.74-60.54-24.42-23.52-54.82-36.55-86.15-47.55-60.39-21.2-122.98-30.32-186.61-34.5-95.68-6.28-189.87,1.45-281.88,29.09-38.16,11.46-75.3,25.92-104.47,54.91-19.07,18.95-19.37,35.73-1.12,55.26,20.36,21.78,46.75,33.75,73.78,44.25,83.12,32.29,170.11,41.24,261.11,42.16ZM74.59,362.77c0,14.48.93,29.05-.24,43.44-1.42,17.43,6.44,30.02,18.58,40.45,15.34,13.18,32.5,23.68,51.12,31.8,58.3,25.43,119.55,37.6,182.59,44.35,101.18,10.84,200.97,4.76,299.44-20.07,42.62-10.75,84.09-25.58,118.02-55.32,10.42-9.13,20.42-19.39,20.49-34.93.14-32.59.12-65.18.26-97.77.04-9.47-1.47-13.34-12.28-7.57-88.5,47.29-184.82,63.34-283.43,68.38-45.35,2.32-90.84,2.07-136.24-2.41-86.32-8.52-170.67-23.99-247.53-67.05-10.33-5.79-10.93-1.5-10.82,7.06.22,16.55.06,33.11.03,49.66ZM442.73,752.49c43.35.71,110.04-5.86,175.42-22.71,45.67-11.77,90.22-26.59,127.25-57.77,9.38-7.9,18.24-17.26,18.67-29.35,1.27-35.14.69-70.34.8-105.52.03-10.06-4.55-9.43-11.62-5.48-9.9,5.54-20.01,10.79-30.36,15.42-88.35,39.52-182.36,50.93-277.69,55.28-46.57,2.13-93.05-1.09-139.24-6.57-76.76-9.11-151.61-25.55-220.03-63.84-2.95-1.65-6.36-5.54-9.57-2.6-3.31,3.02-5.25,7.69-4.32,12.68,5.72,30.77,1.58,61.8,2.34,92.7.26,10.43,2.83,19.02,9.57,26.93,17.6,20.67,40.48,33.58,64.86,43.87,86.28,36.4,177.18,46.65,293.9,46.97ZM74.66,750.75c0,31.37,1,59.82-.35,88.17-.91,19.15,7.01,32.4,20.33,44.44,21.55,19.49,47.27,31.38,74,41.15,58.57,21.41,119.36,32.25,181.44,36.42,100.71,6.77,200.3,1.31,297.46-28.49,33.68-10.33,66.13-23.84,93.92-46.21,12.61-10.15,23.51-21.79,23.34-39.96-.26-26.91-.25-53.83.13-80.74.16-11.34-1.23-15.42-13.37-8.1-27.09,16.35-56.55,27.91-86.8,36.82-56.58,16.66-114.43,26.82-173.33,30.33-69.25,4.13-138.39,3.42-207.21-6.58-72.42-10.53-142.56-28.34-209.56-67.26Z"/>
</svg>