<?xml version="1.0" encoding="UTF-8"?>
<svg id="Layer_1" data-name="Layer 1" xmlns="http://www.w3.org/2000/svg" xmlns:xlink="http://www.w3.org/1999/xlink" viewBox="0 0 1119.53 692.04">
  <defs>
    <style>
      .cls-1 {
        fill: url(#linear-gradient);
      }

      .cls-1, .cls-2 {
        stroke-width: 0px;
      }

      .cls-2 {
        fill: url(#linear-gradient-2);
      }
    </style>
    <linearGradient id="linear-gradient" x1="276.98" y1="172.64" x2="1119.53" y2="172.64" gradientUnits="userSpaceOnUse">
      <stop offset=".3" stop-color="#3e9eb0"/>
      <stop offset=".58" stop-color="#5bbcb4"/>
    </linearGradient>
    <linearGradient id="linear-gradient-2" x1="0" y1="519.4" x2="842.56" y2="519.4" xlink:href="#linear-gradient"/>
  </defs>
  <path class="cls-1" d="M277,225.81c-.78-31.16,16.86-69.03,31.35-95.44C363.84,29.24,485.33-7.5,594.47,1.24c51.13,4.1,102.85,22.28,143.12,54.12,29.28,23.15,57.83,47.23,85.59,72.19,25.49,22.92,48.58,48.58,80.67,62.39,39.6,16.97,85.39,17.17,125.86,2.47,36.78-13.36,68.9-39.21,89.82-72.27-5.1,8.06-5.01,18.27-6.92,27.34-2.19,10.44-5.68,20.77-9.51,30.71-7.51,19.5-17.56,38.01-29.7,55.02-21.87,30.63-54.18,63.13-89.81,77.38-63.31,25.32-133.4,45.31-202.09,28.45-41.51-10.19-82.85-26.5-119.06-49.28-48.55-30.54-88.47-72.85-127.1-114.72-45.43-49.24-121.32-52.53-178.92-24.1-16.97,8.37-32.51,19.57-45.94,32.89-13.04,12.94-19.73,32.59-33.39,44.32-.04-.77-.07-1.55-.09-2.33Z"/>
  <path class="cls-2" d="M.02,572.58c-.78-31.16,16.86-69.03,31.35-95.44,55.48-101.13,176.97-137.87,286.11-129.13,51.13,4.1,102.85,22.28,143.12,54.12,29.28,23.15,57.83,47.23,85.59,72.19,25.49,22.92,48.58,48.58,80.67,62.39,39.6,16.97,85.39,17.17,125.86,2.47,36.78-13.36,68.9-39.21,89.82-72.27-5.1,8.06-5.01,18.27-6.92,27.34-2.19,10.44-5.68,20.77-9.51,30.71-7.51,19.5-17.56,38.01-29.7,55.02-21.87,30.63-54.18,63.13-89.81,77.38-63.31,25.32-133.4,45.31-202.09,28.45-41.51-10.19-82.85-26.5-119.06-49.28-48.55-30.54-88.47-72.85-127.1-114.72-45.43-49.24-121.32-52.53-178.92-24.1-16.97,8.37-32.51,19.57-45.94,32.89-13.04,12.94-19.73,32.59-33.39,44.32-.04-.77-.07-1.55-.09-2.33Z"/>
</svg>