<?xml version="1.0" encoding="UTF-8"?>
<svg id="Layer_1" data-name="Layer 1" xmlns="http://www.w3.org/2000/svg" viewBox="0 0 866.02 866.04">
  <defs>
    <style>
      .cls-1 {
        fill: #fcfdfd;
      }

      .cls-1, .cls-2, .cls-3 {
        stroke-width: 0px;
      }

      .cls-2 {
        fill: #017acc;
      }

      .cls-3 {
        fill: #f8fcfc;
      }
    </style>
  </defs>
  <path class="cls-2" d="M.24,433.12C.24,293.15,0,13.22,0,13.22,0,13.22,2.51-.01,13.08,0c279.93.31,559.87.32,839.8.04,10.41-.01,13.15,2.51,13.14,13.06-.32,279.93-.33,559.87-.04,839.8.01,10.34-2.37,13.15-12.97,13.13-279.93-.31-559.87-.29-839.8.01-10.36.01-13.2-2.44-13.17-13.03.38-139.97.25-279.93.25-419.9h-.04ZM661.72,795.83c20.41.81,38.35-1.18,55.86-6.77,39.98-12.76,69.41-36.73,77.82-79.41,8.76-44.39-.68-84.43-37.5-114.07-33.01-26.58-72.82-40.95-111.14-57.37-16.47-7.06-26.45-25.87-24.15-43.72,2.01-15.59,14.38-26.64,31.75-28.15,22.16-1.93,39.44,6.31,51.41,24.95,4.74,7.39,9.04,7.76,16.09,2.73,13.8-9.87,28.01-19.2,42.48-28.07,8.39-5.14,8.59-9.37,3.19-17.62-40.14-61.29-119.19-61.44-165.27-40.46-71.34,32.49-81.66,131.62-19.52,182.74,16.94,13.93,36.45,23.36,56.19,32.47,20.4,9.41,41.67,17.07,60.54,29.58,12.97,8.6,19.38,20.62,17.73,36.24-1.64,15.41-11.43,24.8-24.89,30.54-13.75,5.85-28.24,6.7-43.02,4.83-26.84-3.38-44.85-19.81-60.11-40.28-3.29-4.41-5.61-8.14-12.15-4.18-17.21,10.43-34.82,20.22-52.19,30.39-3.61,2.11-7.1,3.74-3.9,9.81,18.01,34.21,47.75,55.18,82.28,68,18.67,6.93,39.79,9.98,58.5,7.82ZM383.67,631.32h-.07c0-49.04.26-98.08-.22-147.11-.1-9.93,1.72-13.68,12.79-13.36,30.43.88,60.9.16,91.35.41,6.27.05,9.4-1.17,9.19-8.34-.49-16.99-.54-34.01-.31-51.01.12-9.16-3.69-12.08-12.76-12.05-94.12.26-188.25.25-282.37.04-7.28-.02-9.73,2.34-9.69,9.39.11,17.4.08,34.81-.63,52.19-.32,7.81,2.13,9.98,9.91,9.86,29.26-.45,58.53-.17,87.79-.17q15.78,0,15.81,16.01c0,97.68.12,195.37-.19,293.05-.03,8.61,1.83,11.84,10.97,11.53,19.36-.67,38.76-.64,58.12-.12,8.42.22,10.53-2.67,10.47-10.81-.35-49.83-.18-99.66-.18-149.49Z"/>
  <path class="cls-3" d="M661.72,795.83c-18.71,2.16-39.83-.88-58.5-7.82-34.53-12.82-64.28-33.79-82.28-68-3.19-6.07.3-7.7,3.9-9.81,17.37-10.18,34.98-19.96,52.19-30.39,6.53-3.96,8.86-.24,12.15,4.18,15.26,20.47,33.27,36.9,60.11,40.28,14.79,1.86,29.27,1.02,43.02-4.83,13.46-5.73,23.25-15.12,24.89-30.54,1.66-15.62-4.76-27.64-17.73-36.24-18.87-12.52-40.14-20.18-60.54-29.58-19.74-9.1-39.25-18.53-56.19-32.47-62.14-51.12-51.82-150.26,19.52-182.74,46.08-20.98,125.13-20.83,165.27,40.46,5.4,8.25,5.2,12.47-3.19,17.62-14.46,8.87-28.68,18.2-42.48,28.07-7.04,5.04-11.34,4.66-16.09-2.73-11.97-18.64-29.25-26.88-51.41-24.95-17.37,1.51-29.74,12.56-31.75,28.15-2.3,17.85,7.68,36.66,24.15,43.72,38.32,16.42,78.13,30.79,111.14,57.37,36.82,29.65,46.26,69.68,37.5,114.07-8.42,42.68-37.84,66.65-77.82,79.41-17.51,5.59-35.45,7.58-55.86,6.77Z"/>
  <path class="cls-1" d="M383.67,631.32c0,49.83-.18,99.66.18,149.49.06,8.14-2.05,11.03-10.47,10.81-19.36-.51-38.77-.55-58.12.12-9.13.32-10.99-2.92-10.97-11.53.31-97.68.2-195.37.19-293.05q0-16.02-15.81-16.01c-29.27,0-58.53-.28-87.79.17-7.78.12-10.23-2.05-9.91-9.86.7-17.38.73-34.79.63-52.19-.04-7.05,2.41-9.41,9.69-9.39,94.12.22,188.25.23,282.37-.04,9.07-.03,12.88,2.9,12.76,12.05-.23,17-.18,34.01.31,51.01.21,7.18-2.92,8.39-9.19,8.34-30.45-.25-60.92.48-91.35-.41-11.07-.32-12.88,3.43-12.79,13.36.47,49.03.22,98.08.22,147.11h.07Z"/>
</svg>